<svg width="1920" height="2354" viewBox="0 0 1920 2354" fill="none" xmlns="http://www.w3.org/2000/svg">
<path d="M1394 407V506.5C1394 512.023 1398.48 516.5 1404 516.5H1498.73C1504.25 516.5 1508.73 520.977 1508.73 526.5V600.5C1508.73 606.023 1513.21 610.5 1518.73 610.5H1618.81C1624.33 610.5 1628.81 614.977 1628.81 620.5L1628.81 746.5C1628.81 752.023 1624.33 756.5 1618.81 756.5H1337.76M1337.76 756.5V904C1337.76 909.523 1342.24 914 1347.76 914H1953M1337.76 756.5V656.5C1337.76 650.977 1333.28 646.5 1327.76 646.5H1004.1C1000.13 646.5 996.546 644.16 994.947 640.534L959 559" stroke="url(#paint0_linear_1224_332)"/>
<path d="M524 407V506.5C524 512.023 519.523 516.5 514 516.5H419.269C413.746 516.5 409.269 520.977 409.269 526.5V600.5C409.269 606.023 404.792 610.5 399.269 610.5H299.19C293.667 610.5 289.19 614.977 289.19 620.5L289.19 746.5C289.19 752.023 293.667 756.5 299.19 756.5H580.238M580.238 756.5V904C580.238 909.523 575.761 914 570.238 914H-35M580.238 756.5V656.5C580.238 650.977 584.715 646.5 590.238 646.5H913.902C917.865 646.5 921.454 644.16 923.053 640.534L959 559" stroke="url(#paint1_linear_1224_332)"/>
<path d="M-116 219H299C304.523 219 309 223.477 309 229V352C309 357.523 313.685 362 319.208 362C559.103 362 518.156 362 766 362" stroke="url(#paint2_linear_1224_332)"/>
<circle cx="309" cy="286" r="6" fill="#FFFFF0"/>
<path d="M1943 219H1528C1522.48 219 1518 223.477 1518 229V352C1518 357.523 1513.31 362 1507.79 362C1267.9 362 1308.84 362 1061 362" stroke="url(#paint3_linear_1224_332)"/>
<circle cx="6" cy="6" r="6" transform="matrix(-1 0 0 1 1524 280)" fill="#FFFFF0"/>
<circle cx="960" cy="562" r="6" fill="#FFFFF0"/>
<path d="M1536 914V1139C1536 1144.52 1531.52 1149 1526 1149H1151" stroke="#414A4C" stroke-opacity="0.3"/>
<path d="M379 914V1139C379 1144.52 383.477 1149 389 1149H768.5" stroke="#414A4C" stroke-opacity="0.3"/>
<path d="M1502 1804V1658C1502 1652.48 1497.63 1648 1492.11 1648C1452.89 1648 1305.87 1648 1210.99 1648C1160.68 1648 1151 1648 1151 1648" stroke="url(#paint4_radial_1224_332)"/>
<path d="M418 1804V1658C418 1652.48 422.371 1648 427.894 1648C467.114 1648 614.131 1648 709.008 1648C759.317 1648 769 1648 769 1648" stroke="url(#paint5_radial_1224_332)"/>
<path d="M960 1210L960 1541" stroke="url(#paint6_linear_1224_332)"/>
<path d="M1151 1372H769" stroke="url(#paint7_linear_1224_332)"/>
<circle cx="960" cy="1372" r="6" fill="#FFFFF0"/>
<path d="M554 1149V1268" stroke="url(#paint8_linear_1224_332)" stroke-opacity="0.2"/>
<path d="M1403 1149V1268" stroke="url(#paint9_linear_1224_332)" stroke-opacity="0.2"/>
<path d="M960 998L960 1055" stroke="url(#paint10_linear_1224_332)" stroke-opacity="0.85"/>
<path d="M960 1741L960 2067" stroke="url(#paint11_linear_1224_332)" stroke-opacity="0.85"/>
<path d="M960 884V563.5" stroke="url(#paint12_linear_1224_332)"/>
<circle cx="6" cy="6" r="6" transform="matrix(-1 0 0 1 966 992)" fill="#FFFFF0"/>
<defs>
<linearGradient id="paint0_linear_1224_332" x1="959" y1="352.5" x2="1712.5" y2="1043" gradientUnits="userSpaceOnUse">
<stop offset="0.116106" stop-color="#414A4C"/>
<stop offset="1" stop-color="#FFFFF0"/>
</linearGradient>
<linearGradient id="paint1_linear_1224_332" x1="959" y1="352.5" x2="205.5" y2="1043" gradientUnits="userSpaceOnUse">
<stop offset="0.116106" stop-color="#414A4C"/>
<stop offset="1" stop-color="#FFFFF0"/>
</linearGradient>
<linearGradient id="paint2_linear_1224_332" x1="205.5" y1="219" x2="692" y2="219" gradientUnits="userSpaceOnUse">
<stop offset="0.179041" stop-color="#FFFBF0"/>
<stop offset="1" stop-color="#414A4C" stop-opacity="0.5"/>
</linearGradient>
<linearGradient id="paint3_linear_1224_332" x1="1621.5" y1="219" x2="1135" y2="219" gradientUnits="userSpaceOnUse">
<stop offset="0.179041" stop-color="#FFFBF0"/>
<stop offset="1" stop-color="#414A4C" stop-opacity="0.5"/>
</linearGradient>
<radialGradient id="paint4_radial_1224_332" cx="0" cy="0" r="1" gradientUnits="userSpaceOnUse" gradientTransform="translate(1502 1814.5) rotate(-133.718) scale(395.018 332.319)">
<stop stop-color="#414A4C"/>
<stop offset="1" stop-color="#FFFFF0"/>
</radialGradient>
<radialGradient id="paint5_radial_1224_332" cx="0" cy="0" r="1" gradientUnits="userSpaceOnUse" gradientTransform="translate(418 1814.5) rotate(-46.2821) scale(395.018 332.319)">
<stop stop-color="#414A4C"/>
<stop offset="1" stop-color="#FFFFF0"/>
</radialGradient>
<linearGradient id="paint6_linear_1224_332" x1="960.5" y1="1210" x2="960.5" y2="1541" gradientUnits="userSpaceOnUse">
<stop stop-color="#666666"/>
<stop offset="0.480769" stop-color="#FFFFF0"/>
<stop offset="1" stop-color="#666666"/>
</linearGradient>
<linearGradient id="paint7_linear_1224_332" x1="1151" y1="1372.5" x2="769" y2="1372.5" gradientUnits="userSpaceOnUse">
<stop stop-color="#6E6E6D"/>
<stop offset="0.524038" stop-color="#FFFFF0"/>
<stop offset="1" stop-color="#6E6E6D"/>
</linearGradient>
<linearGradient id="paint8_linear_1224_332" x1="555" y1="1136.21" x2="553.605" y2="1136.21" gradientUnits="userSpaceOnUse">
<stop stop-color="#FFFFF0"/>
<stop offset="0.883894" stop-color="#414A4C"/>
</linearGradient>
<linearGradient id="paint9_linear_1224_332" x1="1404" y1="1136.21" x2="1402.61" y2="1136.21" gradientUnits="userSpaceOnUse">
<stop stop-color="#FFFFF0"/>
<stop offset="0.883894" stop-color="#414A4C"/>
</linearGradient>
<linearGradient id="paint10_linear_1224_332" x1="961" y1="991.873" x2="959.605" y2="991.884" gradientUnits="userSpaceOnUse">
<stop stop-color="#FFFFF0"/>
<stop offset="0.883894" stop-color="#414A4C"/>
</linearGradient>
<linearGradient id="paint11_linear_1224_332" x1="961" y1="1705.96" x2="959.605" y2="1705.96" gradientUnits="userSpaceOnUse">
<stop stop-color="#FFFFF0"/>
<stop offset="0.883894" stop-color="#414A4C"/>
</linearGradient>
<linearGradient id="paint12_linear_1224_332" x1="960.242" y1="598" x2="959.328" y2="598.003" gradientUnits="userSpaceOnUse">
<stop offset="0.116106" stop-color="#414A4C"/>
<stop offset="0.93552" stop-color="#FFFFF0"/>
</linearGradient>
</defs>
</svg>
