<svg width="32" height="29" viewBox="0 0 32 29" fill="none" xmlns="http://www.w3.org/2000/svg">
<path d="M11.9026 24.5758C11.9027 24.2577 12.1621 24 12.4815 24C12.8007 24.0001 13.0593 24.2577 13.0594 24.5758L13.0886 27.8484H23.8767C24.196 27.8485 24.4546 28.1061 24.4546 28.4242C24.4546 28.7423 24.196 28.9999 23.8767 29H7.99154C7.67214 29 7.41264 28.7424 7.41264 28.4242C7.41264 28.106 7.67214 27.8484 7.99154 27.8484H11.9318L11.9026 24.5758ZM27.2644 18.947C27.2643 16.06 24.9375 13.7283 22.0788 13.7282C19.2201 13.7282 16.8934 16.06 16.8933 18.947C16.8933 21.834 19.2201 24.1657 22.0788 24.1657C23.4706 24.1657 24.7345 23.6147 25.667 22.715C26.6516 21.7651 27.2644 20.4287 27.2644 18.947ZM30.8441 19.8857V3.72862C30.8441 2.30792 29.6825 1.15172 28.2452 1.1516H3.7548C2.3175 1.15173 1.15591 2.30792 1.15591 3.72862V19.9223C1.15591 20.3305 1.15703 20.4827 1.17191 20.6031C1.2913 21.568 2.05357 22.3279 3.01966 22.4468C3.14019 22.4616 3.29277 22.4627 3.70209 22.4627C3.76969 22.4627 3.81144 22.4625 3.84329 22.4618C3.87347 22.4611 3.88188 22.4599 3.88188 22.4599C4.02809 22.4419 4.14419 22.3266 4.16238 22.1795C4.16238 22.1795 4.16366 22.1692 4.16426 22.1411V13.1524C4.16426 12.7452 4.16352 12.3818 4.20286 12.0899C4.24442 11.7817 4.34046 11.4685 4.59726 11.2121C4.85447 10.9555 5.16974 10.8588 5.47924 10.8173C5.77188 10.7781 6.13601 10.7798 6.54384 10.7798H7.33169C7.73973 10.7798 8.10449 10.7781 8.39723 10.8173C8.70672 10.8588 9.02106 10.9556 9.27828 11.2121C9.53534 11.4686 9.63204 11.7816 9.67362 12.0899C9.71295 12.3818 9.71127 12.7452 9.71127 13.1524V20.7888C9.71127 21.1715 9.71234 21.4082 9.73292 21.5821C9.75189 21.7423 9.78058 21.7741 9.78469 21.7791C9.7981 21.7954 9.81354 21.8107 9.82987 21.8241C9.83539 21.8287 9.86814 21.8561 10.0257 21.8747C10.1999 21.8953 10.4377 21.8963 10.822 21.8963C11.206 21.8963 11.4431 21.8953 11.6174 21.8747C11.7776 21.8558 11.8093 21.828 11.8141 21.8241C11.8304 21.8108 11.845 21.7953 11.8583 21.7791C11.8621 21.7745 11.891 21.7435 11.9101 21.5821C11.9307 21.4082 11.9318 21.1716 11.9318 20.7888V9.78389C11.9318 9.37668 11.931 9.01327 11.9704 8.72138C12.0119 8.41299 12.1076 8.09916 12.3648 7.84268C12.6219 7.58626 12.9364 7.49033 13.2458 7.44881C13.5386 7.40955 13.9032 7.4113 14.3113 7.4113H15.2121C15.6202 7.4113 15.9849 7.40955 16.2777 7.44881C16.587 7.49034 16.9016 7.58625 17.1587 7.84268C17.4158 8.09916 17.5116 8.41299 17.5531 8.72138C17.5925 9.01327 17.5917 9.37668 17.5917 9.78389V10.9064C17.5917 11.2246 17.3322 11.4832 17.0128 11.4832C16.6936 11.483 16.4349 11.2245 16.4349 10.9064V9.78389C16.4349 9.34414 16.4332 9.07161 16.4066 8.87424C16.3823 8.69381 16.3465 8.66424 16.3398 8.65761C16.3332 8.651 16.3037 8.61526 16.1233 8.59103C15.9257 8.56452 15.653 8.5629 15.2121 8.5629H14.3113C13.8705 8.5629 13.5978 8.56452 13.4002 8.59103C13.2199 8.61523 13.1903 8.65094 13.1837 8.65761C13.177 8.66424 13.1412 8.69381 13.1168 8.87424C13.0902 9.07161 13.0886 9.34414 13.0886 9.78389V20.7888C13.0886 21.1435 13.0898 21.4601 13.0594 21.7172C13.0274 21.9871 12.9541 22.2657 12.7535 22.5096C12.6921 22.5843 12.6232 22.6527 12.5483 22.714C12.3037 22.9143 12.0247 22.9878 11.7539 23.0198C11.4959 23.0502 11.1778 23.0488 10.822 23.0488C10.4662 23.0488 10.1481 23.0502 9.89011 23.0198C9.61932 22.9878 9.34028 22.9142 9.09567 22.714C9.02082 22.6528 8.95188 22.5842 8.89046 22.5096C8.68981 22.2657 8.61653 21.9871 8.58455 21.7172C8.55412 21.4601 8.55537 21.1435 8.55537 20.7888V13.1524C8.55537 12.7129 8.5537 12.441 8.52713 12.2437C8.50278 12.063 8.467 12.0328 8.4603 12.0261C8.45375 12.0196 8.42383 11.9838 8.24286 11.9595C8.0452 11.9331 7.77238 11.9324 7.33169 11.9324H6.54384C6.10348 11.9324 5.83121 11.9331 5.63361 11.9595C5.45334 11.9837 5.42288 12.0194 5.41618 12.0261C5.40953 12.0328 5.37372 12.0628 5.34934 12.2437C5.32277 12.441 5.32111 12.7129 5.32111 13.1524V21.9994C5.32111 22.1126 5.32198 22.2215 5.30981 22.3202C5.22689 22.9908 4.69751 23.52 4.02401 23.6031C3.92499 23.6152 3.81542 23.6143 3.70209 23.6143C3.32751 23.6143 3.0873 23.6156 2.87847 23.5899C1.3848 23.4062 0.208566 22.2325 0.024484 20.7438C-0.00126504 20.5355 9.84811e-06 20.2962 1.05145e-05 19.9223V3.72862C1.05145e-05 1.66717 1.68305 0.000137225 3.7548 0H28.2452C30.317 0.000123294 32 1.66716 32 3.72862V19.8857C32 20.2039 31.7415 20.4615 31.4221 20.4615C31.1026 20.4615 30.8441 20.2039 30.8441 19.8857ZM23.9774 10.9064V6.52697C23.9774 6.08742 23.9758 5.81558 23.9492 5.61826C23.9248 5.43739 23.889 5.40732 23.8823 5.40069C23.8756 5.39396 23.8452 5.35829 23.6649 5.33411C23.4672 5.30764 23.1944 5.30691 22.7537 5.30691H22.0788C21.6379 5.30691 21.3654 5.3076 21.1677 5.33411C20.9867 5.35838 20.9568 5.39416 20.9502 5.40069C20.9434 5.4075 20.9077 5.43816 20.8834 5.61826C20.8568 5.81558 20.8561 6.08745 20.8561 6.52697V10.2331C20.856 10.5512 20.5966 10.8089 20.2772 10.8089C19.9581 10.8087 19.6994 10.5511 19.6993 10.2331V6.52697C19.6993 6.11988 19.6985 5.75628 19.7379 5.46446C19.7795 5.15624 19.8753 4.84304 20.1323 4.5867C20.3894 4.33016 20.7039 4.23435 21.0133 4.19283C21.3061 4.15356 21.6707 4.15438 22.0788 4.15438H22.7537C23.1618 4.15438 23.5265 4.15358 23.8193 4.19283C24.1287 4.23433 24.4431 4.3302 24.7003 4.5867C24.9573 4.84307 25.0541 5.1562 25.0957 5.46446C25.135 5.75628 25.1333 6.11988 25.1333 6.52697V10.9064C25.1333 11.2246 24.8747 11.4831 24.5554 11.4832C24.236 11.4832 23.9774 11.2246 23.9774 10.9064ZM28.4203 18.947C28.4203 20.5401 27.8368 21.9971 26.8738 23.1145L31.1321 27.342C31.3583 27.5665 31.3592 27.9315 31.134 28.1569C30.9086 28.3823 30.5423 28.3832 30.316 28.1588L26.0445 23.9172C24.959 24.7922 23.5802 25.3182 22.0788 25.3183C18.5714 25.3183 15.7364 22.4605 15.7364 18.947C15.7365 15.4335 18.5714 12.5766 22.0788 12.5766C25.5862 12.5767 28.4202 15.4335 28.4203 18.947Z" fill="url(#paint0_linear_1466_789)"/>
<defs>
<linearGradient id="paint0_linear_1466_789" x1="16" y1="0" x2="16" y2="29" gradientUnits="userSpaceOnUse">
<stop stop-color="#FE4F18"/>
<stop offset="1" stop-color="#fff" stop-opacity="0.6"/>
</linearGradient>
</defs>
</svg>
