<svg width="30" height="32" viewBox="0 0 30 32" fill="none" xmlns="http://www.w3.org/2000/svg">
<path d="M18.0544 26.3657C18.0542 26.1349 17.863 25.9381 17.6152 25.9381H12.2423C11.9946 25.9381 11.8042 26.1349 11.804 26.3657V30.4493C11.8042 30.6803 11.9945 30.8779 12.2423 30.8779H17.6152C17.863 30.8779 18.0543 30.6803 18.0544 30.4493V26.3657ZM7.37262 16.0274C7.37262 15.7964 7.18129 15.5989 6.9334 15.5989H1.56054C1.31266 15.5989 1.12132 15.7964 1.12132 16.0274V20.1101C1.12133 20.3411 1.31266 20.5387 1.56054 20.5387H6.9334C7.18128 20.5387 7.37261 20.3411 7.37262 20.1101V16.0274ZM28.8787 16.0274C28.8787 15.7964 28.6873 15.5989 28.4395 15.5989H23.0666C22.8187 15.5989 22.6274 15.7964 22.6274 16.0274V20.1101C22.6274 20.3411 22.8187 20.5387 23.0666 20.5387H28.4395C28.6873 20.5387 28.8787 20.3411 28.8787 20.1101V16.0274ZM18.0544 16.0274C18.0544 15.7964 17.8631 15.5989 17.6152 15.5989H12.2423C11.9945 15.5989 11.804 15.7964 11.804 16.0274V20.1101C11.804 20.3411 11.9945 20.5387 12.2423 20.5387H17.6152C17.8631 20.5387 18.0544 20.3411 18.0544 20.1101V16.0274ZM18.1795 1.55066C18.1794 1.31974 17.9881 1.1221 17.7403 1.1221H12.3674C12.1196 1.1221 11.9283 1.31974 11.9282 1.55066V5.63427C11.9284 5.86512 12.1197 6.06191 12.3674 6.06191H17.7403C17.9881 6.06191 18.1793 5.86512 18.1795 5.63427V1.55066ZM19.3008 5.63427C19.3006 6.49642 18.5965 7.18492 17.7403 7.18492H15.6145V10.3931H23.8829C24.3077 10.3931 24.6826 10.392 24.9833 10.4324C25.3001 10.4751 25.6178 10.5721 25.8763 10.8308C26.1348 11.0896 26.2318 11.4074 26.2744 11.7245C26.3148 12.0253 26.3137 12.4005 26.3137 12.8256V14.4758H28.4395C29.2958 14.4758 30 15.1651 30 16.0274V20.1101C30 20.9724 29.2958 21.6617 28.4395 21.6617H23.0666C22.2103 21.6617 21.5061 20.9724 21.5061 20.1101V16.0274C21.5061 15.1651 22.2103 14.4758 23.0666 14.4758H25.1924V12.8256C25.1924 12.3686 25.1912 12.0821 25.1631 11.8734C25.1373 11.6811 25.0981 11.6402 25.0828 11.6249C25.0675 11.6096 25.0266 11.5704 24.8344 11.5445C24.6259 11.5164 24.3396 11.5152 23.8829 11.5152H15.6145V14.4758H17.6152C18.4715 14.4758 19.1767 15.1651 19.1767 16.0274V20.1101C19.1767 20.9724 18.4715 21.6617 17.6152 21.6617H15.4904V24.8151H17.6152C18.4714 24.8151 19.1765 25.5036 19.1767 26.3657V30.4493C19.1765 31.3116 18.4715 32 17.6152 32H12.2423C11.3861 32 10.6819 31.3116 10.6818 30.4493V26.3657C10.682 25.5036 11.3861 24.8151 12.2423 24.8151H14.3681V21.6617H12.2423C11.386 21.6617 10.6818 20.9724 10.6818 20.1101V16.0274C10.6818 15.1651 11.386 14.4758 12.2423 14.4758H14.4932V11.5152H6.11706C5.66043 11.5152 5.37413 11.5164 5.16558 11.5445C4.97334 11.5704 4.93253 11.6096 4.91721 11.6249C4.90189 11.6402 4.86272 11.6811 4.83685 11.8734C4.80882 12.0821 4.80763 12.3686 4.80763 12.8256V14.4758H6.9334C7.78974 14.4758 8.49394 15.1651 8.49394 16.0274V20.1101C8.49393 20.9724 7.78973 21.6617 6.9334 21.6617H1.56054C0.704211 21.6617 7.77667e-06 20.9724 0 20.1101V16.0274C0 15.1651 0.704207 14.4758 1.56054 14.4758H3.68631V12.8256C3.68631 12.4005 3.6852 12.0253 3.72557 11.7245C3.76817 11.4074 3.86515 11.0896 4.1237 10.8308C4.38225 10.5721 4.6999 10.4751 5.01674 10.4324C5.31738 10.392 5.69231 10.3931 6.11706 10.3931H14.4932V7.18492H12.3674C11.5112 7.18492 10.8071 6.49642 10.8069 5.63427V1.55066C10.807 0.688436 11.5112 0 12.3674 0H17.7403C18.5966 0 19.3007 0.688437 19.3008 1.55066V5.63427Z" fill="url(#paint0_linear_1461_660)"/>
<defs>
<linearGradient id="paint0_linear_1461_660" x1="15" y1="0" x2="15" y2="32" gradientUnits="userSpaceOnUse">
<stop stop-color="#FE4F18"/>
<stop offset="1" stop-color="#fff" stop-opacity="0.6"/>
</linearGradient>
</defs>
</svg>
