<svg width="32" height="28" viewBox="0 0 32 28" fill="none" xmlns="http://www.w3.org/2000/svg">
<path d="M30.8441 19.7964C30.8439 15.9083 27.7582 12.7644 23.9623 12.7643C20.1664 12.7643 17.0808 15.9082 17.0806 19.7964C17.0806 23.6848 20.1663 26.8286 23.9623 26.8286C25.8099 26.8285 27.487 26.0852 28.7243 24.8728C30.0306 23.5928 30.8441 21.7924 30.8441 19.7964ZM10.661 13.664L10.7777 13.6755C11.0413 13.73 11.2399 13.9662 11.2399 14.2492C11.2399 14.5727 10.9804 14.8345 10.661 14.8345H4.24991C3.93051 14.8345 3.67102 14.5727 3.67102 14.2492C3.67102 13.9258 3.93051 13.664 4.24991 13.664H10.661ZM29.8397 11.2793V7.76322H1.1559V19.7964C1.1559 21.14 2.22628 22.225 3.54018 22.225H4.521C5.38827 22.225 6.08728 22.9393 6.0873 23.8148V25.9308C6.08731 26.3 6.51201 26.481 6.77068 26.2405L10.6413 22.6425C10.9296 22.3744 11.3067 22.2251 11.6983 22.225H13.9009L14.0176 22.2364C14.2811 22.2911 14.4788 22.5273 14.4789 22.8102C14.4789 23.0932 14.2811 23.3294 14.0176 23.384L13.9009 23.3964H11.6983C11.5971 23.3965 11.4989 23.4349 11.4235 23.5051L7.55289 27.1041C6.54426 28.0414 4.93047 27.308 4.93046 25.9308V23.8148C4.93044 23.5809 4.7443 23.3964 4.521 23.3964H3.54018C1.5823 23.3964 2.4272e-07 21.7816 2.4272e-07 19.7964V7.17704C8.20186e-08 5.74679 -0.00086081 4.62305 0.101659 3.73721C0.20567 2.83869 0.422706 2.10895 0.911166 1.50117C1.07811 1.29346 1.26485 1.10275 1.46841 0.932158C2.06465 0.432588 2.78098 0.210322 3.66255 0.103891C4.53112 -0.000947423 5.63289 1.26521e-07 7.0333 3.08253e-07H23.9623C25.3628 1.85052e-07 26.4645 -0.000950597 27.3331 0.103891C28.2148 0.210329 28.9319 0.432436 29.5282 0.932158C29.7316 1.10268 29.9176 1.29357 30.0845 1.50117C30.5729 2.10895 30.7909 2.83869 30.8949 3.73721C30.9974 4.62304 30.9966 5.74684 30.9966 7.17704V11.2793C30.9965 11.6027 30.7371 11.8645 30.4177 11.8645C30.0984 11.8644 29.8398 11.6026 29.8397 11.2793ZM14.8573 10.3986C15.1767 10.3986 15.4362 10.6614 15.4362 10.9848C15.436 11.3081 15.1766 11.57 14.8573 11.57H4.24991C3.93059 11.57 3.67115 11.3081 3.67102 10.9848C3.67102 10.6614 3.93051 10.3986 4.24991 10.3986H14.8573ZM7.0333 1.17044C5.60453 1.17044 4.58416 1.17208 3.79998 1.26671C3.02881 1.35979 2.56141 1.53645 2.20544 1.83477C2.06052 1.95624 1.92729 2.09173 1.80821 2.23985C1.51513 2.60451 1.3414 3.08414 1.25003 3.87351C1.17015 4.56377 1.15858 5.43278 1.15684 6.59182H29.8388C29.8371 5.43277 29.8255 4.56377 29.7456 3.87351C29.6542 3.08414 29.4805 2.60451 29.1874 2.23985C29.0683 2.09172 28.9351 1.95624 28.7902 1.83477C28.4342 1.53645 27.9668 1.35979 27.1957 1.26671C26.4115 1.1721 25.3911 1.17044 23.9623 1.17044H7.0333ZM32 19.7964C32 22.121 31.0522 24.2218 29.5291 25.7144C28.0858 27.1288 26.1234 27.9999 23.9623 28C19.5183 28 15.9238 24.3223 15.9238 19.7964C15.9239 15.2707 19.5184 11.5938 23.9623 11.5938C28.4061 11.594 31.9998 15.2708 32 19.7964ZM6.0873 4.00027C6.0873 4.67474 5.54831 5.22695 4.87869 5.22695C4.20926 5.22673 3.67102 4.67461 3.67102 4.00027C3.6712 3.32609 4.20937 2.77477 4.87869 2.77455C5.5482 2.77455 6.08713 3.32595 6.0873 4.00027ZM10.2826 4.00027C10.2826 4.67474 9.74456 5.22695 9.07495 5.22695C8.40551 5.22674 7.86728 4.67462 7.86728 4.00027C7.86746 3.32608 8.40562 2.77476 9.07495 2.77455C9.74445 2.77455 10.2824 3.32596 10.2826 4.00027ZM14.4789 4.00027C14.4789 4.67474 13.9408 5.22695 13.2712 5.22695C12.6018 5.22676 12.0635 4.67463 12.0635 4.00027C12.0637 3.32607 12.6019 2.77474 13.2712 2.77455C13.9407 2.77455 14.4787 3.32596 14.4789 4.00027Z" fill="url(#paint0_linear_1466_873)"/>
<path d="M23.8362 21.6406C23.5171 21.6406 23.2515 21.3659 23.3118 21.0362C23.3136 21.0262 23.3155 21.0163 23.3174 21.0064C23.3597 20.7998 23.4276 20.6091 23.5213 20.4342C23.6029 20.2657 23.6935 20.1322 23.7932 20.0337C23.8929 19.9319 24.0046 19.8318 24.1285 19.7333C24.2524 19.6315 24.3898 19.4964 24.5409 19.3279C24.6647 19.1849 24.7463 19.0434 24.7856 18.9036C24.8248 18.7605 24.8445 18.6079 24.8445 18.4458C24.8445 18.3409 24.8339 18.2423 24.8128 18.1502C24.7916 18.058 24.7538 17.9785 24.6995 17.9117C24.6149 17.7941 24.5061 17.7115 24.3732 17.6638C24.2403 17.6129 24.0983 17.5875 23.9472 17.5875C23.8234 17.5875 23.7041 17.605 23.5893 17.6399C23.4775 17.6717 23.3823 17.7226 23.3038 17.7925C23.2131 17.8688 23.1467 17.9626 23.1044 18.0739C23.0318 18.2648 22.8846 18.441 22.6892 18.441H22.4918C22.172 18.441 21.9158 18.1455 22.026 17.8295C22.0583 17.7368 22.096 17.6466 22.1392 17.5589C22.2751 17.2855 22.4534 17.0677 22.6739 16.9056C22.8461 16.7721 23.0394 16.6719 23.2539 16.6052C23.4714 16.5384 23.689 16.5051 23.9065 16.5051C24.2388 16.5051 24.5514 16.5591 24.8445 16.6672C25.1405 16.7753 25.3867 16.9533 25.5831 17.2012C25.719 17.3634 25.8218 17.5509 25.8912 17.7639C25.9637 17.9769 26 18.1931 26 18.4124C26 18.7398 25.932 19.0387 25.7961 19.3089C25.6632 19.5791 25.494 19.8286 25.2886 20.0575C25.1919 20.1656 25.0997 20.261 25.0121 20.3436C24.9245 20.4263 24.843 20.5073 24.7674 20.5868C24.6949 20.6631 24.6345 20.7442 24.5862 20.83C24.5016 20.9794 24.4517 21.1066 24.4366 21.2115C24.4018 21.4462 24.2309 21.6406 24.0052 21.6406H23.8362ZM23.8408 23.5051C23.5242 23.5051 23.2675 23.235 23.2675 22.9019V22.8446C23.2675 22.5115 23.5242 22.2414 23.8408 22.2414C24.1573 22.2414 24.414 22.5115 24.414 22.8446V22.9019C24.414 23.235 24.1573 23.5051 23.8408 23.5051Z" fill="url(#paint1_linear_1466_873)"/>
<defs>
<linearGradient id="paint0_linear_1466_873" x1="16" y1="0" x2="16" y2="28" gradientUnits="userSpaceOnUse">
<stop stop-color="#ff6b35"/>
<stop offset="1" stop-color="white" stop-opacity="0.6"/>
</linearGradient>
<linearGradient id="paint1_linear_1466_873" x1="14.6623" y1="-4.86058" x2="14.6623" y2="29.3389" gradientUnits="userSpaceOnUse">
<stop stop-color="#ff6b35"/>
<stop offset="1" stop-color="white" stop-opacity="0.6"/>
</linearGradient>
</defs>
</svg>
