<svg width="32" height="29" viewBox="0 0 32 29" fill="none" xmlns="http://www.w3.org/2000/svg">
<path d="M30.8441 3.72862C30.8441 2.30792 29.6825 1.15172 28.2452 1.1516H3.75479C2.31748 1.15172 1.1559 2.30792 1.1559 3.72862V19.8857C1.1559 21.3064 2.31748 22.4626 3.75479 22.4627H28.2452C29.6825 22.4626 30.8441 21.3064 30.8441 19.8857V3.72862ZM18.181 6.9199C18.3051 6.62672 18.6444 6.48953 18.9387 6.61325C19.2328 6.73702 19.3706 7.07505 19.2465 7.36816L15.4079 16.4318C15.2838 16.7249 14.9444 16.8621 14.6502 16.7385C14.3559 16.6148 14.2182 16.2768 14.3424 15.9836L18.181 6.9199ZM12.0946 8.72044L12.5031 9.12838L9.47217 12.1349L12.5031 15.1424C12.7293 15.3668 12.7301 15.7318 12.505 15.9573C12.2797 16.1827 11.9133 16.1836 11.687 15.9592L8.24473 12.5438C8.13589 12.4358 8.07445 12.2889 8.07436 12.1358C8.07436 11.9826 8.13578 11.8351 8.24473 11.727L11.687 8.31157L12.0946 8.72044ZM24.673 11.7195C24.7841 11.8253 24.8487 11.9705 24.8519 12.1237C24.8549 12.2768 24.7966 12.4251 24.69 12.5353L21.3804 15.9507L21.291 16.0267C21.0692 16.1782 20.7635 16.159 20.5624 15.9658C20.3326 15.7447 20.3265 15.3798 20.5483 15.1508L23.4531 12.1518L20.5643 9.3994L20.9643 8.98302L21.3635 8.56665L24.673 11.7195ZM20.5464 8.58447C20.7671 8.35472 21.1327 8.3469 21.3635 8.56665L20.5643 9.3994C20.3335 9.17948 20.3257 8.81444 20.5464 8.58447ZM11.687 8.31157C11.9133 8.08733 12.2797 8.08809 12.505 8.31345C12.7302 8.53889 12.7293 8.90386 12.5031 9.12838L11.687 8.31157ZM32 19.8857C32 21.9471 30.317 23.6142 28.2452 23.6143H13.9969V27.8484H23.8767L23.9934 27.8597C24.2568 27.9135 24.4546 28.1459 24.4546 28.4242C24.4546 28.7025 24.2568 28.9349 23.9934 28.9887L23.8767 29H7.99153C7.67213 29 7.41264 28.7424 7.41264 28.4242C7.41264 28.106 7.67213 27.8484 7.99153 27.8484H12.8401V23.6143H3.75479C1.68303 23.6142 0 21.9471 0 19.8857V3.72862C0 1.66717 1.68303 0.000123294 3.75479 0H28.2452C30.317 0.000123294 32 1.66717 32 3.72862V19.8857Z" fill="url(#paint0_linear_1441_597)"/>
<defs>
<linearGradient id="paint0_linear_1441_597" x1="16" y1="0.575799" x2="16" y2="28.4242" gradientUnits="userSpaceOnUse">
<stop stop-color="#2b2b2b"/>
<stop offset="1" stop-color="white" stop-opacity="0.6"/>
</linearGradient>
</defs>
</svg>
