<svg width="260" height="58" viewBox="0 0 260 58" fill="none" xmlns="http://www.w3.org/2000/svg">
<g opacity="0.5">
<g clip-path="url(#clip0_706_1443)">
<path d="M201.568 45.5834L202.014 52.8843C200.818 53.4823 197.766 53.7769 196.195 53.7769C188.323 53.7769 182.744 48.8411 182.521 40.1746H190.813C190.941 41.8112 191.697 43.3348 192.923 44.4262C194.149 45.5177 195.75 46.0923 197.391 46.0296C198.793 45.9991 200.191 45.8498 201.568 45.5834ZM88.8759 53.2592H97.1408V7.08819H88.8759V53.2592ZM161.814 24.0643C165.759 24.0643 169.035 26.0011 170.525 28.9018L177.523 24.9568C174.845 19.6016 168.892 16.0939 161.814 16.0939C159.306 16.0416 156.812 16.4972 154.484 17.4331C152.156 18.3691 150.042 19.7662 148.267 21.5404C146.493 23.3146 145.096 25.4293 144.16 27.7573C143.224 30.0853 142.769 32.5786 142.821 35.0871C142.821 45.8868 151.095 54 161.886 54C168.571 54 174.328 50.9475 177.496 46.11L170.57 41.8615C169.574 43.2143 168.262 44.3019 166.748 45.0287C165.233 45.7555 163.564 46.0992 161.886 46.0296C160.449 46.0467 159.023 45.7746 157.694 45.2294C156.365 44.6842 155.158 43.877 154.148 42.856C153.137 41.8351 152.341 40.6211 151.809 39.2864C151.277 37.9517 151.019 36.5236 151.05 35.0871C151.05 28.8394 155.593 24.0643 161.85 24.0643M84.1633 33.4538C84.1827 31.1566 83.7421 28.8787 82.8676 26.7544C81.9931 24.6301 80.7023 22.7023 79.0712 21.0845C77.4401 19.4668 75.5018 18.1918 73.3704 17.3347C71.239 16.4776 68.9576 16.0557 66.6607 16.0939C64.1919 16.0676 61.7428 16.5345 59.4569 17.4671C57.171 18.3998 55.0943 19.7794 53.3486 21.5251C51.6028 23.2709 50.2232 25.3476 49.2906 27.6335C48.3579 29.9194 47.8911 32.3685 47.9174 34.8372C47.8721 37.3427 48.3281 39.832 49.2585 42.1589C50.1889 44.4857 51.575 46.6031 53.3353 48.3867C55.0956 50.1702 57.1946 51.584 59.509 52.5449C61.8234 53.5058 64.3065 53.9945 66.8124 53.9822C74.3365 53.9822 80.4415 51.0011 83.1191 46.0921L76.4964 41.8436C74.7828 44.673 71.0609 46.4581 66.9641 46.4581C61.0823 46.4581 57.0569 42.8879 56.1644 37.0061H83.8331C84.0357 35.827 84.1342 34.6323 84.1276 33.4359M56.4411 30.6958C57.7085 25.9297 61.2072 22.9486 66.1965 22.9486C71.1858 22.9486 74.988 26.1528 75.4343 30.6958H56.4411ZM138.117 33.4538C138.137 31.1566 137.696 28.8787 136.822 26.7544C135.947 24.6301 134.656 22.7023 133.025 21.0845C131.394 19.4668 129.456 18.1918 127.324 17.3347C125.193 16.4776 122.912 16.0557 120.615 16.0939C118.146 16.0676 115.697 16.5345 113.411 17.4671C111.125 18.3998 109.048 19.7794 107.303 21.5251C105.557 23.2709 104.177 25.3476 103.245 27.6335C102.312 29.9194 101.845 32.3685 101.871 34.8372C101.825 37.3431 102.28 39.8329 103.21 42.1603C104.14 44.4876 105.526 46.6055 107.287 48.3894C109.047 50.1732 111.147 51.5869 113.461 52.5474C115.776 53.5079 118.26 53.9957 120.766 53.9822C128.29 53.9822 134.395 51.0011 137.073 46.0921L130.441 41.8436C128.737 44.673 125.006 46.4581 120.918 46.4581C115.027 46.4581 111.011 42.8879 110.118 37.0061H137.787C137.992 35.8272 138.094 34.6326 138.09 33.4359M110.422 30.6869C111.689 25.9207 115.188 22.9397 120.177 22.9397C125.167 22.9397 128.969 26.1439 129.415 30.6869H110.422ZM241.464 33.4538C241.482 31.1573 241.041 28.8804 240.166 26.7572C239.291 24.6339 238 22.7071 236.369 21.0903C234.738 19.4735 232.8 18.1993 230.669 17.3428C228.538 16.4863 226.258 16.0647 223.962 16.1028C221.493 16.0778 219.045 16.5455 216.759 17.4785C214.474 18.4116 212.398 19.7913 210.652 21.5368C208.907 23.2823 207.527 25.3585 206.594 27.6438C205.661 29.9292 205.193 32.3778 205.218 34.8461C205.174 37.3509 205.631 39.8393 206.562 42.165C207.493 44.4908 208.879 46.6072 210.639 48.3898C212.4 50.1724 214.498 51.5854 216.812 52.5457C219.126 53.5061 221.608 53.9944 224.113 53.9822C231.629 53.9822 237.742 51.0011 240.42 46.0921L233.788 41.8436C232.075 44.673 228.353 46.4581 224.256 46.4581C218.374 46.4581 214.358 42.8879 213.465 37.0061H241.134C241.339 35.8272 241.441 34.6326 241.438 33.4359M213.769 30.6869C215.036 25.9207 218.535 22.9397 223.524 22.9397C228.514 22.9397 232.307 26.1439 232.762 30.6869H213.769ZM246.177 53.2503H254.442V7.08819H246.177V53.2503ZM33.0209 44.7087C30.8691 46.0027 28.3904 46.6503 25.8806 46.5741C23.1029 46.6376 20.3782 45.8086 18.1066 44.2089C15.9025 42.597 14.3631 40.2355 13.7778 37.5684L5.56641 38.809C5.99895 41.7384 7.18281 44.5059 9.00268 46.8419C10.8347 49.1562 13.2238 50.9681 15.9466 52.1078C18.952 53.3813 22.1883 54.0195 25.4522 53.9822C28.6474 54.0153 31.8194 53.4366 34.797 52.2774C37.5068 51.2453 39.8746 49.4771 41.6339 47.1721C43.1515 45.1419 44.0308 42.7061 44.1598 40.1746H35.9573C35.8731 41.112 35.5617 42.0149 35.05 42.8049C34.5384 43.5949 33.8419 44.2484 33.0209 44.7087Z" fill="#141517" fill-opacity="0.6"/>
<path d="M190.759 37.0239H182.494V24.7337V7.08819H190.759V16.8436H201.639V24.7337H190.759V37.0239ZM42.1605 31.9632C40.935 30.3106 39.323 28.9836 37.4657 28.0985C35.5033 27.206 33.4702 26.4776 31.3875 25.9207L22.7835 23.4573C20.9678 23.0537 19.231 22.3541 17.6424 21.3867C17.0186 20.9894 16.5108 20.4342 16.1707 19.7775C15.8306 19.1207 15.6701 18.3857 15.7056 17.6469C15.7013 16.4266 16.1534 15.2487 16.973 14.3445C17.8951 13.3406 19.0555 12.5854 20.3468 12.1489C21.7898 11.6257 23.3203 11.3863 24.8541 11.4438C27.3021 11.4462 29.6851 12.2311 31.6553 13.684C33.5883 15.0933 34.9227 17.1761 35.395 19.5212L43.8652 18.12C43.2551 15.3396 42.012 12.7373 40.2326 10.5155C38.5057 8.41106 36.2818 6.76995 33.7617 5.74045C30.9761 4.60203 27.9972 4.01111 24.988 4C21.9195 3.90907 18.8645 4.44353 16.0091 5.57087C13.5174 6.55387 11.3523 8.21784 9.76132 10.3727C8.17989 12.6009 7.36261 15.2814 7.43179 18.0129C7.43179 21.708 8.45524 24.457 10.5021 26.2599C12.7041 28.1447 15.3084 29.5003 18.1155 30.2228L30.5575 33.9C32.087 34.2992 33.4962 35.0651 34.6631 36.1314C34.9143 36.4047 35.1357 36.7039 35.3236 37.0239H44.0794C43.9088 35.1946 43.2457 33.4457 42.1605 31.9632Z" fill="#141517" fill-opacity="0.6"/>
</g>
</g>
<defs>
<clipPath id="clip0_706_1443">
<rect width="248.866" height="50" fill="white" transform="translate(5.56641 4)"/>
</clipPath>
</defs>
</svg>
