<svg width="13" height="16" viewBox="0 0 13 16" fill="none" xmlns="http://www.w3.org/2000/svg">
<path d="M6.66645 15.3328C3.35821 15.3328 0.666748 12.5939 0.666748 9.22729C0.666748 7.17706 1.5697 5.89429 2.92564 4.59931L4.39436 3.19565L3.91919 5.18788C3.75419 5.88147 3.711 8.00008 4.58635 9.13266C4.95293 9.60705 5.43711 9.83784 6.06648 9.83784C6.73065 9.83784 7.25802 9.29811 7.26642 8.6088C7.27482 7.92682 6.99163 7.36206 6.69165 6.76494C6.38446 6.15316 6.06648 5.52124 6.06648 4.75317C6.06648 3.09796 6.91364 1.59784 6.94963 1.53495L7.44641 0.666748L7.97498 1.51603C8.48436 2.33355 9.17132 3.09552 9.83669 3.83246C11.228 5.37349 12.6667 6.96825 12.6667 9.2279C12.6667 12.5945 9.97528 15.3334 6.66705 15.3334L6.66645 15.3328ZM1.86669 9.22729C1.86669 11.9204 4.01998 14.1117 6.66645 14.1117C9.31292 14.1117 11.4662 11.9204 11.4662 9.22729C11.4662 7.44326 10.2453 6.08967 8.95233 4.65792C8.49036 4.14567 8.01758 3.62243 7.5868 3.06377C7.42121 3.53573 7.26642 4.14018 7.26642 4.75439C7.26642 5.22818 7.49501 5.68304 7.75959 6.21056C8.09678 6.88094 8.47836 7.64047 8.46636 8.62529C8.45016 9.96728 7.37321 11.0596 6.06648 11.0596C5.07353 11.0596 4.23537 10.6541 3.6426 9.88791C2.95503 8.99833 2.70125 7.76502 2.64425 6.72159C2.14207 7.4341 1.86669 8.20217 1.86669 9.22729Z" fill="#FE4F18"/>
</svg>
