<svg width="97" height="19" viewBox="0 0 97 19" fill="none" xmlns="http://www.w3.org/2000/svg">
<path d="M0.853516 14.2841V0.415771H1.95044V14.2841H0.853516Z" fill="#EEEEEE"/>
<path d="M8.30943 14.2841V1.49121H3.38121V0.415771H14.3187V1.49121H9.39045V14.2841H8.29352H8.30943Z" fill="#EEEEEE"/>
<path d="M13.4761 8.71432V7.70309H19.1992V8.71432H13.4761Z" fill="#EEEEEE"/>
<path d="M21.3931 18.9069V3.88287H22.3946V11.8925H22.49V18.9069H21.3931ZM25.9079 14.5731C24.9859 14.5731 24.191 14.3323 23.5551 13.8347C22.9192 13.3532 22.4264 12.6951 22.0926 11.8604C21.7587 11.0257 21.5838 10.0948 21.5838 9.05141C21.5838 8.00807 21.7587 7.06104 22.0926 6.24242C22.4264 5.4238 22.9351 4.76569 23.5869 4.3002C24.2387 3.83471 25.0654 3.59395 26.0192 3.59395C26.9731 3.59395 27.752 3.83471 28.4197 4.31625C29.0874 4.79779 29.5802 5.4559 29.93 6.27452C30.2797 7.10919 30.4546 8.02413 30.4546 9.05141C30.4546 10.0787 30.2797 11.0257 29.93 11.8604C29.5802 12.6951 29.0715 13.3532 28.3879 13.8347C27.7202 14.3163 26.8936 14.557 25.9238 14.557L25.9079 14.5731ZM25.8443 13.5137C26.6074 13.5137 27.2274 13.3211 27.7361 12.9198C28.2449 12.5346 28.6264 11.9888 28.8808 11.3307C29.1351 10.6726 29.2623 9.90213 29.2623 9.06746C29.2623 8.23279 29.1351 7.47838 28.8808 6.82027C28.6264 6.16217 28.2449 5.63247 27.752 5.24724C27.2433 4.862 26.6074 4.66939 25.8284 4.66939C25.0494 4.66939 24.4454 4.862 23.9367 5.23118C23.4279 5.60036 23.0464 6.13006 22.792 6.80422C22.5377 7.47838 22.4105 8.23279 22.4105 9.08351C22.4105 9.93423 22.5377 10.6886 22.792 11.3628C23.0464 12.037 23.4279 12.5667 23.9367 12.9519C24.4454 13.3371 25.0972 13.5297 25.8602 13.5297L25.8443 13.5137Z" fill="#EEEEEE"/>
<path d="M36.4797 14.5731C35.4941 14.5731 34.6357 14.3484 33.9203 13.8989C33.2049 13.4495 32.6484 12.8235 32.251 12.0049C31.8536 11.1862 31.6628 10.2232 31.6628 9.09957C31.6628 7.97597 31.8536 6.98078 32.251 6.16216C32.6484 5.34354 33.189 4.70148 33.9044 4.25205C34.6197 3.80261 35.4623 3.59395 36.448 3.59395C37.4336 3.59395 38.3079 3.81867 39.0074 4.28416C39.7228 4.74965 40.2634 5.40775 40.629 6.27452C40.9947 7.1413 41.1854 8.18463 41.1536 9.40453H40.009V9.0193C39.9772 7.59073 39.6592 6.51529 39.0551 5.76088C38.451 5.02252 37.5926 4.63729 36.4638 4.63729C35.3351 4.63729 34.3972 5.02251 33.7772 5.79298C33.1413 6.56344 32.8233 7.65494 32.8233 9.06746C32.8233 10.48 33.1413 11.5554 33.7772 12.3259C34.4131 13.0963 35.3033 13.4816 36.448 13.4816C37.2428 13.4816 37.9423 13.289 38.5305 12.9198C39.1187 12.5506 39.5956 12.0049 39.9454 11.3146L40.931 11.7641C40.5177 12.663 39.9136 13.3532 39.1346 13.8508C38.3557 14.3323 37.4654 14.5891 36.448 14.5891L36.4797 14.5731ZM32.41 9.40453V8.40936H40.5495V9.40453H32.41Z" fill="#EEEEEE"/>
<path d="M42.9977 14.2842V3.88287H44.0787V13.2248H48.2598V3.88287H49.3408V13.2248H53.5059V3.88287H54.587V14.2842H42.9977Z" fill="#EEEEEE"/>
<path d="M61.2162 14.5731C60.2306 14.5731 59.3721 14.3484 58.6567 13.8989C57.9413 13.4495 57.3849 12.8235 56.9875 12.0049C56.59 11.1862 56.3993 10.2232 56.3993 9.09957C56.3993 7.97597 56.59 6.98078 56.9875 6.16216C57.3849 5.34354 57.9254 4.70148 58.6408 4.25205C59.3562 3.80261 60.1988 3.59395 61.1844 3.59395C62.1701 3.59395 63.0444 3.81867 63.7439 4.28416C64.4593 4.74965 64.9998 5.40775 65.3655 6.27452C65.7311 7.1413 65.9219 8.18463 65.8901 9.40453H64.7454V9.0193C64.7136 7.59073 64.3957 6.51529 63.7916 5.76088C63.1875 5.02252 62.329 4.63729 61.2003 4.63729C60.0716 4.63729 59.1337 5.02251 58.5137 5.79298C57.8778 6.56344 57.5598 7.65494 57.5598 9.06746C57.5598 10.48 57.8778 11.5554 58.5137 12.3259C59.1496 13.0963 60.0398 13.4816 61.1844 13.4816C61.9793 13.4816 62.6788 13.289 63.267 12.9198C63.8552 12.5506 64.3321 12.0049 64.6818 11.3146L65.6675 11.7641C65.2542 12.663 64.6501 13.3532 63.8711 13.8508C63.0921 14.3323 62.2019 14.5891 61.1844 14.5891L61.2162 14.5731ZM57.1465 9.40453V8.40936H65.2859V9.40453H57.1465Z" fill="#EEEEEE"/>
<path d="M67.7342 14.2842V3.88287H68.8311V8.53777H75.047V3.88287H76.1439V14.2842H75.047V9.62926H68.8311V14.2842H67.7342Z" fill="#EEEEEE"/>
<path d="M86.4614 3.88287V14.2842H85.3804V5.74482L79.4824 14.2842H78.5126V3.88287H79.5937V12.3901L85.4916 3.88287H86.4614Z" fill="#EEEEEE"/>
<path d="M88.2737 14.2842L91.2942 9.78978H92.566L89.5296 14.2842H88.2737ZM95.4117 14.2842V10.2232H92.8045C92.5183 10.2232 92.2321 10.2232 91.9619 10.175C91.6916 10.1429 91.4214 10.1108 91.1829 10.0626C90.4835 9.93423 89.8793 9.6132 89.3865 9.13166C88.8937 8.65012 88.6393 7.95992 88.6393 7.07709C88.6393 6.19427 88.8778 5.55222 89.3388 5.03857C89.7999 4.52493 90.3403 4.18784 90.9604 4.02733C91.2624 3.94707 91.5645 3.89891 91.8665 3.89891C92.1686 3.89891 92.4388 3.88287 92.6614 3.88287H96.5086V14.2842H95.4117ZM92.8045 9.21193H95.4117V4.8941H92.8045C92.6296 4.8941 92.3912 4.89411 92.0891 4.91016C91.787 4.92621 91.5009 4.97436 91.2465 5.05462C91.024 5.11882 90.8014 5.23118 90.5788 5.39169C90.3563 5.55221 90.1655 5.77693 90.0224 6.0498C89.8793 6.32268 89.7999 6.65975 89.7999 7.06104C89.7999 7.62283 89.9429 8.05622 90.245 8.3933C90.547 8.73038 90.9286 8.93905 91.3737 9.06746C91.6281 9.13166 91.8824 9.16376 92.1368 9.17982C92.3912 9.17982 92.5978 9.19587 92.7886 9.19587L92.8045 9.21193Z" fill="#EEEEEE"/>
</svg>
