<svg width="107" height="17" viewBox="0 0 107 17" fill="none" xmlns="http://www.w3.org/2000/svg">
<path d="M0.899654 16.8571V13.5345C1.48786 13.5345 1.91709 13.3419 2.18734 12.9727C2.4576 12.5875 2.66431 11.9936 2.82328 11.191C2.93456 10.6453 3.01402 10.0674 3.09351 9.4414C3.173 8.81539 3.23658 8.07703 3.28427 7.22631C3.33197 6.37559 3.39557 5.3483 3.44326 4.1605H9.96123V13.5506H10.931V16.8732H9.86585V14.5618H1.96481V16.8732H0.883789L0.899654 16.8571ZM3.04582 13.5345H8.88021V5.15568H4.52427C4.49248 5.68538 4.46069 6.24718 4.42889 6.84108C4.3971 7.43498 4.34943 8.02888 4.30173 8.62279C4.25404 9.21669 4.19043 9.76243 4.12684 10.2921C4.06325 10.8218 3.96791 11.2552 3.87252 11.6404C3.77714 12.0738 3.66583 12.443 3.55455 12.764C3.44327 13.0851 3.2843 13.3419 3.06173 13.5506L3.04582 13.5345Z" fill="#EEEEEE"/>
<path d="M11.6146 13.5505C11.9961 13.6148 12.2982 13.5987 12.4889 13.4863C12.6797 13.374 12.8228 13.1814 12.9181 12.9245C13.0135 12.6677 13.0771 12.3467 13.1407 11.9775C13.252 11.3355 13.3474 10.6292 13.4269 9.87479C13.5064 9.12037 13.5859 8.26964 13.6495 7.32261C13.7131 6.37558 13.7925 5.3162 13.8561 4.14445H20.6761V14.5457H19.5633V5.21989H14.9212C14.8735 5.99035 14.8099 6.74477 14.7623 7.46708C14.7146 8.18939 14.6351 8.8796 14.5715 9.53771C14.5079 10.1958 14.4284 10.7897 14.3648 11.3194C14.3012 11.8491 14.2059 12.3146 14.1264 12.7159C14.031 13.2295 13.9038 13.6469 13.7448 13.9518C13.5859 14.2568 13.3315 14.4655 13.0136 14.5778C12.6797 14.6741 12.2187 14.6741 11.6146 14.5618V13.5505Z" fill="#EEEEEE"/>
<path d="M22.5043 14.5457L25.5249 10.0514H26.7966L23.7602 14.5457H22.5043ZM29.6423 14.5457V10.4847H27.0351C26.7489 10.4847 26.4628 10.4847 26.1925 10.4366C25.9223 10.4045 25.652 10.3724 25.4136 10.3242C24.7141 10.1958 24.11 9.87478 23.6172 9.39324C23.1243 8.9117 22.87 8.22149 22.87 7.33867C22.87 6.45584 23.1084 5.81379 23.5695 5.30015C24.0305 4.7865 24.571 4.44942 25.191 4.2889C25.493 4.20865 25.7951 4.16049 26.0972 4.16049C26.3992 4.16049 26.6695 4.14445 26.892 4.14445H30.7392V14.5457H29.6423ZM27.0351 9.4735H29.6423V5.15568H27.0351C26.8602 5.15568 26.6218 5.15568 26.3197 5.17173C26.0177 5.18779 25.7315 5.23593 25.4772 5.31619C25.2546 5.3804 25.032 5.49275 24.8095 5.65327C24.5869 5.81378 24.3961 6.03851 24.253 6.31138C24.11 6.58425 24.0305 6.92133 24.0305 7.32261C24.0305 7.88441 24.1736 8.3178 24.4756 8.65488C24.7777 8.99196 25.1592 9.20062 25.6043 9.32903C25.8587 9.39324 26.1131 9.42534 26.3674 9.44139C26.6218 9.44139 26.8285 9.45745 27.0192 9.45745L27.0351 9.4735Z" fill="#EEEEEE"/>
<path d="M40.7546 14.8347C39.8008 14.8347 38.9741 14.626 38.2905 14.2247C37.6069 13.8234 37.0664 13.1814 36.7008 12.3467C36.3192 11.496 36.1285 10.4205 36.1126 9.12037C36.1126 8.57463 36.1126 7.98073 36.1761 7.35473C36.2238 6.71267 36.3033 6.11877 36.3987 5.55697C36.4941 4.99517 36.5895 4.54574 36.7008 4.20866C36.8598 3.72712 37.0823 3.26162 37.3844 2.84428C37.6864 2.42695 38.0521 2.07383 38.4813 1.80096C38.8628 1.54413 39.3079 1.33546 39.8008 1.191C40.3095 1.04653 40.8341 0.918121 41.3746 0.837864C41.9152 0.757607 42.4556 0.677351 42.9803 0.613146C43.5049 0.54894 43.9818 0.484736 44.3952 0.388428L44.5223 1.41571C44.1726 1.47992 43.7592 1.54413 43.2823 1.60833C42.8054 1.67254 42.2967 1.73674 41.7721 1.83305C41.2475 1.92936 40.7387 2.02567 40.2618 2.17013C39.7849 2.31459 39.3715 2.49116 39.0218 2.71588C38.4813 3.03691 38.0839 3.55055 37.7977 4.2247C37.5116 4.89886 37.3367 5.68538 37.2572 6.58426C37.6546 5.9422 38.1792 5.46067 38.8628 5.12359C39.5464 4.78651 40.2777 4.60994 41.0885 4.60994C42.0105 4.60994 42.8213 4.8186 43.5049 5.25199C44.1885 5.68538 44.6972 6.27928 45.0628 7.04975C45.4285 7.82021 45.6192 8.71908 45.6192 9.73032C45.6192 10.7416 45.4285 11.6725 45.031 12.427C44.6495 13.1974 44.0931 13.7913 43.3618 14.2087C42.6305 14.626 41.7721 14.8347 40.7705 14.8347H40.7546ZM40.85 13.7592C42.0264 13.7592 42.9167 13.39 43.5208 12.6517C44.1249 11.9133 44.4269 10.9342 44.4269 9.71428C44.4269 8.49437 44.109 7.48313 43.489 6.76082C42.8531 6.03851 41.9788 5.68538 40.8341 5.68538C39.6895 5.68538 38.8151 6.03851 38.211 6.76082C37.591 7.48313 37.289 8.46227 37.289 9.71428C37.289 10.9663 37.591 11.9454 38.211 12.6677C38.8151 13.39 39.7054 13.7432 40.8659 13.7432L40.85 13.7592Z" fill="#EEEEEE"/>
<path d="M55.3485 4.14445V14.5457H54.2675V6.0064L48.3695 14.5457H47.3997V4.14445H48.4808V12.6517L54.3788 4.14445H55.3485Z" fill="#EEEEEE"/>
<path d="M61.4531 14.8347C60.4039 14.8347 59.4977 14.5939 58.7346 14.1284C57.9716 13.6629 57.3834 12.9887 56.9382 12.1541L57.8285 11.6083C58.21 12.3146 58.687 12.8443 59.2911 13.2135C59.8793 13.5827 60.5787 13.7592 61.3577 13.7592C62.1367 13.7592 62.8203 13.5666 63.329 13.1814C63.8219 12.7961 64.0762 12.2664 64.0762 11.5762C64.0762 11.1428 63.9808 10.7737 63.8059 10.5008C63.6152 10.2119 63.329 10.0032 62.9316 9.87479C62.5342 9.74638 62.0095 9.66611 61.3736 9.66611H60.0065V8.67093H61.3736C62.1367 8.67093 62.7408 8.52647 63.186 8.2215C63.6311 7.91652 63.8536 7.46708 63.8536 6.88923C63.8536 6.23113 63.6152 5.74958 63.1383 5.42855C62.6614 5.10753 62.089 4.94702 61.4054 4.94702C60.7218 4.94702 60.1495 5.07543 59.5931 5.3483C59.0367 5.62118 58.5598 5.97431 58.21 6.39164L57.447 5.63723C57.9398 5.04333 58.528 4.59389 59.2116 4.30496C59.8952 3.99999 60.6582 3.85553 61.5167 3.85553C62.1844 3.85553 62.7726 3.96789 63.2972 4.20866C63.8218 4.44943 64.2352 4.78651 64.5372 5.23594C64.8393 5.68538 64.9823 6.21507 64.9823 6.82503C64.9823 7.43498 64.8234 7.98073 64.5213 8.39806C64.2193 8.83145 63.79 9.16853 63.2654 9.42535L63.1541 8.95986C63.6311 9.02407 64.0285 9.18458 64.3464 9.4735C64.6644 9.76243 64.8711 10.0995 65.0142 10.4847C65.1572 10.886 65.2208 11.2873 65.2208 11.6886C65.2208 12.3306 65.0619 12.8764 64.728 13.3579C64.3942 13.8395 63.9649 14.1926 63.3926 14.4494C62.8203 14.7062 62.1844 14.8347 61.469 14.8347H61.4531Z" fill="#EEEEEE"/>
<path d="M67.0172 14.5457V4.14445H68.1141V8.79935H74.3301V4.14445H75.427V14.5457H74.3301V9.89084H68.1141V14.5457H67.0172Z" fill="#EEEEEE"/>
<path d="M82.0403 14.8347C81.0547 14.8347 80.1963 14.6099 79.4809 14.1605C78.7655 13.7111 78.209 13.0851 77.8116 12.2664C77.4142 11.4478 77.2234 10.4847 77.2234 9.36115C77.2234 8.23755 77.4142 7.24236 77.8116 6.42374C78.209 5.60512 78.7496 4.96306 79.465 4.51363C80.1803 4.06419 81.0229 3.85553 82.0086 3.85553C82.9942 3.85553 83.8685 4.08025 84.568 4.54574C85.2834 5.01122 85.824 5.66933 86.1896 6.5361C86.5552 7.40287 86.746 8.44621 86.7142 9.66611H85.5696V9.28088C85.5378 7.85231 85.2198 6.77687 84.6157 6.02246C84.0116 5.28409 83.1531 4.89887 82.0244 4.89887C80.8957 4.89887 79.9577 5.28409 79.3377 6.05455C78.7018 6.82502 78.3839 7.91651 78.3839 9.32903C78.3839 10.7416 78.7018 11.817 79.3377 12.5875C79.9736 13.3579 80.8639 13.7432 82.0086 13.7432C82.8034 13.7432 83.5029 13.5505 84.0911 13.1814C84.6793 12.8122 85.1562 12.2664 85.506 11.5762L86.4916 12.0257C86.0783 12.9245 85.4742 13.6148 84.6952 14.1123C83.9163 14.5939 83.026 14.8507 82.0086 14.8507L82.0403 14.8347ZM77.9706 9.66611V8.67094H86.1101V9.66611H77.9706Z" fill="#EEEEEE"/>
<path d="M92.7711 14.8347C91.7378 14.8347 90.8794 14.6099 90.164 14.1444C89.4645 13.679 88.924 13.0369 88.5583 12.2022C88.1927 11.3676 88.0019 10.4205 87.986 9.34509C87.986 8.2536 88.1927 7.29051 88.5583 6.45584C88.924 5.63722 89.4645 4.99517 90.1798 4.52968C90.8793 4.08024 91.7537 3.83947 92.7711 3.83947C93.7886 3.83947 94.647 4.08024 95.4101 4.56178C96.1732 5.04332 96.6978 5.71747 96.9839 6.5682L95.9188 6.96948C95.6645 6.32743 95.2511 5.81379 94.6947 5.46066C94.1383 5.10753 93.4865 4.93096 92.7711 4.93096C91.9604 4.93096 91.2927 5.12358 90.7522 5.49276C90.2276 5.86194 89.8301 6.39164 89.5757 7.04974C89.3214 7.70785 89.1783 8.47831 89.1624 9.34509C89.1783 10.6774 89.4963 11.7367 90.1004 12.5554C90.7045 13.3579 91.5947 13.7592 92.7711 13.7592C93.5024 13.7592 94.1383 13.5826 94.6788 13.2456C95.2194 12.9085 95.6327 12.4109 95.9188 11.7688L96.9999 12.138C96.6024 13.0208 96.046 13.679 95.3147 14.1444C94.5835 14.6099 93.7409 14.8347 92.7711 14.8347Z" fill="#EEEEEE"/>
<path d="M101.642 14.8347C100.847 14.8347 100.179 14.6902 99.6548 14.4173C99.1301 14.1284 98.7327 13.7592 98.4783 13.2937C98.224 12.8282 98.0809 12.3306 98.0809 11.7849C98.0809 11.191 98.2081 10.6934 98.4465 10.3082C98.685 9.92293 99.0188 9.58586 99.4322 9.34509C99.8455 9.10432 100.291 8.91171 100.783 8.79935C101.356 8.67094 101.96 8.55857 102.612 8.46226C103.263 8.36595 103.899 8.2857 104.488 8.2215C105.076 8.15729 105.569 8.09308 105.95 8.04493L105.553 8.2857C105.585 7.16211 105.362 6.32743 104.933 5.78168C104.488 5.23594 103.709 4.96306 102.596 4.96306C101.817 4.96306 101.165 5.13963 100.672 5.49276C100.179 5.84589 99.8137 6.40768 99.607 7.14605L98.4783 6.82502C98.7168 5.87799 99.1937 5.15568 99.8932 4.64204C100.609 4.12839 101.515 3.88762 102.628 3.88762C103.581 3.88762 104.376 4.08023 105.012 4.44942C105.664 4.8186 106.109 5.3483 106.363 6.02246C106.475 6.29533 106.538 6.61635 106.586 6.98554C106.618 7.35472 106.65 7.7239 106.65 8.09308V14.5778H105.648V11.8491L106.014 11.9454C105.696 12.8764 105.155 13.5987 104.376 14.1123C103.597 14.626 102.675 14.8668 101.626 14.8668L101.642 14.8347ZM101.706 13.8074C102.405 13.8074 103.025 13.679 103.55 13.4221C104.074 13.1653 104.503 12.8122 104.837 12.3467C105.171 11.8812 105.378 11.3515 105.457 10.7255C105.521 10.3724 105.553 10.0032 105.569 9.60192C105.584 9.20063 105.569 8.89565 105.569 8.70303L106.046 9.00801C105.632 9.05616 105.139 9.12037 104.567 9.16852C103.995 9.21668 103.407 9.29693 102.802 9.37718C102.198 9.45744 101.658 9.56981 101.181 9.69822C100.879 9.77848 100.577 9.90689 100.275 10.0514C99.9727 10.2119 99.7183 10.4205 99.5276 10.7095C99.3368 10.9984 99.2255 11.3355 99.2255 11.7528C99.2255 12.0738 99.305 12.3788 99.464 12.6998C99.6229 13.0209 99.8773 13.2777 100.243 13.4863C100.609 13.695 101.101 13.7913 101.706 13.7913V13.8074Z" fill="#EEEEEE"/>
</svg>
