<svg width="214" height="84" viewBox="0 0 214 84" fill="none" xmlns="http://www.w3.org/2000/svg">
<path d="M35.9343 83.1072C27.9561 83.1072 21.3183 81.3379 15.9888 77.7833C10.6592 74.2287 6.67006 69.3391 4.00526 63.0984C1.34047 56.8577 0 49.6681 0 41.5455C0 33.423 1.34047 26.2334 4.00526 19.9927C6.67006 13.752 10.6753 8.8624 15.9888 5.30779C21.3022 1.76926 27.9561 0 35.9343 0C45.2692 0 52.8114 2.42872 58.5124 7.28615C64.2134 12.1436 68.0733 18.6094 70.076 26.6998L65.1825 27.8096C63.4059 20.7647 60.079 15.1353 55.2016 10.9373C50.3242 6.73929 43.8964 4.64834 35.9343 4.64834C29.0705 4.64834 23.3694 6.22459 18.8312 9.36102C14.293 12.4974 10.8691 16.8563 8.55964 22.4053C6.25015 27.9544 5.07118 34.3398 5.00658 41.5455C4.92583 48.7513 6.0402 55.1206 8.34968 60.6536C10.6592 66.1866 14.1153 70.5454 18.7182 73.6979C23.3371 76.8504 29.0705 78.4267 35.9343 78.4267C43.9126 78.4267 50.3242 76.3196 55.2016 72.1217C60.079 67.9076 63.4059 62.2942 65.1825 55.2815L70.076 56.3913C68.0733 64.4817 64.2134 70.9475 58.5124 75.8049C52.7952 80.6624 45.2692 83.0911 35.9343 83.0911V83.1072Z" fill="#EEEEEE"/>
<path d="M108.384 83.1072C100.406 83.1072 93.7684 81.3379 88.4388 77.7833C83.1092 74.2287 79.1201 69.3391 76.4553 63.0984C73.7906 56.8577 72.4501 49.6681 72.4501 41.5455C72.4501 33.423 73.7906 26.2334 76.4553 19.9927C79.1201 13.752 83.1254 8.86241 88.4388 5.30779C93.7523 1.76927 100.406 1.98276e-06 108.384 1.98276e-06C116.363 1.98276e-06 123 1.76927 128.33 5.30779C133.643 8.86241 137.649 13.752 140.313 19.9927C142.978 26.2334 144.319 33.423 144.319 41.5455C144.319 49.6681 142.978 56.8577 140.313 63.0984C137.649 69.3391 133.643 74.2287 128.33 77.7833C123.017 81.3379 116.363 83.1072 108.384 83.1072ZM108.384 78.4427C115.248 78.4427 120.965 76.8665 125.536 73.714C130.123 70.5615 133.563 66.2027 135.856 60.6697C138.149 55.1367 139.312 48.7674 139.312 41.5616C139.312 34.3559 138.165 27.9865 135.856 22.4214C133.547 16.8563 130.123 12.5135 125.536 9.3771C120.965 6.24068 115.232 4.66442 108.384 4.66442C101.537 4.66442 95.8195 6.24068 91.2813 9.3771C86.7431 12.5135 83.3192 16.8723 81.0097 22.4214C78.7002 27.9705 77.5212 34.3559 77.4566 41.5616C77.3759 48.7674 78.4903 55.1367 80.7998 60.6697C83.1092 66.2027 86.5654 70.5615 91.1682 73.714C95.7872 76.8665 101.521 78.4427 108.384 78.4427Z" fill="#EEEEEE"/>
<path d="M150.02 83.1073V0.0161704H174.73C175.747 0.0161704 177.362 0.0322561 179.591 0.0805088C181.82 0.112677 183.935 0.289603 185.97 0.595203C192.172 1.47984 197.324 3.82813 201.394 7.64009C205.48 11.4521 208.516 16.2934 210.503 22.1481C212.489 28.0188 213.49 34.4847 213.49 41.5617C213.49 48.6388 212.489 55.169 210.503 61.0397C208.516 66.9105 205.48 71.7357 201.394 75.5155C197.308 79.3114 192.172 81.6436 185.97 82.5282C183.984 82.8017 181.836 82.9625 179.559 83.0268C177.281 83.0912 175.666 83.1073 174.73 83.1073H150.02ZM155.285 78.2659H174.73C176.603 78.2659 178.477 78.2016 180.382 78.089C182.288 77.9764 183.871 77.7995 185.147 77.5743C190.686 76.6575 195.144 74.5505 198.519 71.2532C201.894 67.9559 204.349 63.774 205.9 58.6753C207.434 53.5766 208.209 47.8828 208.209 41.5617C208.209 35.2406 207.434 29.5468 205.9 24.4481C204.365 19.3494 201.894 15.1675 198.519 11.8702C195.144 8.58906 190.686 6.48203 185.147 5.54914C183.855 5.32396 182.24 5.14704 180.285 5.03445C178.331 4.92186 176.474 4.85752 174.73 4.85752H155.285V78.2659Z" fill="#EEEEEE"/>
</svg>
