<svg width="301" height="83" viewBox="0 0 301 83" fill="none" xmlns="http://www.w3.org/2000/svg">
<path d="M31.6767 83C26.1559 83 21.1761 82.1319 16.7691 80.3636C12.362 78.6113 8.70272 76.1356 5.80712 72.9204C2.91151 69.7213 0.970506 65.9113 0 61.5226L4.77298 60.6384C6.23669 66.1042 9.38685 70.4126 14.2076 73.5956C19.0124 76.7626 24.8513 78.3541 31.6926 78.3541C36.4656 78.3541 40.634 77.6146 44.1978 76.1356C47.7616 74.6727 50.514 72.5828 52.4869 69.9142C54.4597 67.2456 55.4302 64.1108 55.4302 60.5419C55.4302 57.8412 54.9211 55.5906 53.9029 53.7901C52.8846 51.9895 51.58 50.5266 50.0049 49.4013C48.4298 48.276 46.7911 47.3758 45.0887 46.7166C43.3864 46.0575 41.8749 45.5431 40.5385 45.1734L20.0943 39.1931C17.135 38.3411 14.5894 37.3122 12.4416 36.0905C10.3096 34.8687 8.54364 33.4862 7.1913 31.9429C5.82304 30.3996 4.82071 28.6955 4.15249 26.8468C3.50019 24.9981 3.16606 23.0207 3.16606 20.9309C3.16606 16.8636 4.29568 13.2626 6.53898 10.1118C8.79819 6.9448 11.9325 4.48518 15.9418 2.68468C19.9511 0.900249 24.5968 0 29.847 0C35.0973 0 39.9817 0.964557 44.2137 2.87759C48.4616 4.79063 51.93 7.49138 54.6347 10.9799C57.3394 14.4683 59.0418 18.5516 59.7259 23.2458L54.9529 24.13C54.4279 20.2557 53.0278 16.8476 50.7527 13.9218C48.4935 10.9799 45.5501 8.71315 41.9545 7.08948C38.3588 5.46581 34.3336 4.64594 29.847 4.64594C25.3604 4.64594 21.8125 5.36936 18.5828 6.80012C15.3531 8.23087 12.8075 10.1761 11.0097 12.6035C9.19594 15.031 8.28906 17.78 8.28906 20.7862C8.28906 23.9692 9.16411 26.4931 10.9301 28.3901C12.6961 30.287 14.844 31.766 17.3895 32.827C19.9192 33.8881 22.3375 34.7401 24.6604 35.3992L41.5886 40.3827C43.0364 40.8007 44.7865 41.3955 46.8707 42.1832C48.9549 42.971 51.0072 44.1123 53.0437 45.5913C55.0802 47.0703 56.7507 49.0155 58.1031 51.4269C59.4395 53.8383 60.1237 56.8766 60.1237 60.5259C60.1237 63.95 59.4554 67.0527 58.1349 69.8177C56.8144 72.5828 54.9052 74.946 52.3914 76.8912C49.8935 78.8524 46.9025 80.3475 43.4182 81.4085C39.9339 82.4695 36.036 82.9839 31.7085 82.9839L31.6767 83Z" fill="#FE4F18"/>
<path d="M65.7557 0.273288H115.745V5.09607H70.5287V39.177H108.935V43.9998H70.5287V78.0969H115.745V82.9197H65.7557V0.273288Z" fill="#FE4F18"/>
<path d="M146.053 82.9036L116.286 0.273288H121.393L148.535 75.9105L175.789 0.273288H180.896L151.144 82.9036H146.037H146.053Z" fill="#FE4F18"/>
<path d="M183.776 0.273288H233.765V5.09607H188.549V39.177H226.955V43.9998H188.549V78.0969H233.765V82.9197H183.776V0.273288Z" fill="#FE4F18"/>
<path d="M241.704 82.9036V0.273288H246.477L296.227 74.3029V0.273288H301V82.9036H296.227L246.477 8.76138V82.9036H241.704Z" fill="#FE4F18"/>
</svg>
