<svg width="311" height="68" viewBox="0 0 311 68" fill="none" xmlns="http://www.w3.org/2000/svg">
<path d="M248.382 5.30269V1.11849H246.632V0.0395508H251.329V1.11849H249.579V5.30269H248.382ZM252.316 5.30269V0.0395508H253.277L255.092 2.88164L256.908 0.0395508H257.869V5.30269H256.724V2.27638L255.421 4.36848H254.763L253.461 2.27638V5.30269H252.316Z" fill="black"/>
<path d="M29.2763 67.9866C22.7763 67.9866 17.3684 66.5392 13.0263 63.6313C8.6842 60.7234 5.43421 56.7234 3.26316 51.6182C1.0921 46.513 0 40.6314 0 33.9867C0 27.342 1.0921 21.4604 3.26316 16.3552C5.43421 11.25 8.69736 7.24997 13.0263 4.34209C17.3552 1.44736 22.7763 0 29.2763 0C36.8815 0 43.0263 1.98683 47.671 5.9605C52.3158 9.93417 55.4605 15.2236 57.0921 21.842L53.1052 22.7499C51.6579 16.9868 48.9473 12.3815 44.9737 8.94733C41 5.51313 35.7631 3.80261 29.2763 3.80261C23.6842 3.80261 19.0395 5.09208 15.3421 7.65786C11.6447 10.2236 8.85526 13.7894 6.97368 18.3289C5.0921 22.8683 4.13157 28.092 4.07894 33.9867C4.01315 39.8814 4.92105 45.0919 6.80262 49.6182C8.6842 54.1445 11.5 57.7103 15.25 60.2892C19.0131 62.8682 23.6842 64.1576 29.2763 64.1576C35.7763 64.1576 41 62.4339 44.9737 58.9997C48.9473 55.5524 51.6579 50.9603 53.1052 45.2235L57.0921 46.1314C55.4605 52.7498 52.3158 58.0392 47.671 62.0129C43.0131 65.9866 36.8815 67.9734 29.2763 67.9734V67.9866Z" fill="#141517"/>
<path d="M88.3027 67.9866C81.8027 67.9866 76.3948 66.5392 72.0527 63.6313C67.7106 60.7234 64.4606 56.7234 62.2895 51.6182C60.1185 46.513 59.0264 40.6314 59.0264 33.9867C59.0264 27.342 60.1185 21.4604 62.2895 16.3552C64.4606 11.25 67.7237 7.24997 72.0527 4.34209C76.3816 1.44736 81.8027 0 88.3027 0C94.8027 0 100.211 1.44736 104.553 4.34209C108.882 7.24997 112.145 11.25 114.316 16.3552C116.487 21.4604 117.579 27.342 117.579 33.9867C117.579 40.6314 116.487 46.513 114.316 51.6182C112.145 56.7234 108.882 60.7234 104.553 63.6313C100.224 66.5392 94.8027 67.9866 88.3027 67.9866ZM88.3027 64.1708C93.8948 64.1708 98.5527 62.8813 102.276 60.3024C106.013 57.7234 108.816 54.1577 110.684 49.6314C112.553 45.1051 113.5 39.8946 113.5 33.9999C113.5 28.1051 112.566 22.8946 110.684 18.342C108.803 13.7894 106.013 10.2368 102.276 7.67102C98.5527 5.10524 93.8816 3.81577 88.3027 3.81577C82.7237 3.81577 78.0658 5.10524 74.3685 7.67102C70.6711 10.2368 67.8816 13.8026 66.0001 18.342C64.1185 22.8815 63.1579 28.1051 63.1053 33.9999C63.0395 39.8946 63.9474 45.1051 65.829 49.6314C67.6974 54.1577 70.5264 57.7234 74.2764 60.3024C78.0395 62.8813 82.7106 64.1708 88.3027 64.1708Z" fill="#141517"/>
<path d="M122.224 67.9861V0.0126953H142.355C143.184 0.0126953 144.5 0.0258544 146.316 0.0653279C148.132 0.0916435 149.855 0.236379 151.513 0.486378C156.566 1.21006 160.763 3.13111 164.079 6.24951C167.408 9.36792 169.881 13.3284 171.5 18.1179C173.118 22.9205 173.934 28.2099 173.934 33.9994C173.934 39.7888 173.118 45.1309 171.5 49.9335C169.881 54.7361 167.408 58.6835 164.079 61.7756C160.75 64.8808 156.566 66.7887 151.513 67.5124C149.895 67.7361 148.145 67.8677 146.289 67.9203C144.434 67.9729 143.118 67.9861 142.355 67.9861H122.224ZM126.513 64.0256H142.355C143.882 64.0256 145.408 63.973 146.96 63.8809C148.513 63.7887 149.803 63.644 150.842 63.4598C155.355 62.7098 158.987 60.9861 161.737 58.2888C164.487 55.5914 166.487 52.1704 167.75 47.9993C169 43.8283 169.631 39.1704 169.631 33.9994C169.631 28.8284 169 24.1705 167.75 19.9995C166.5 15.8284 164.487 12.4074 161.737 9.71003C158.987 7.02583 155.355 5.30215 150.842 4.53899C149.789 4.35479 148.474 4.21005 146.882 4.11794C145.289 4.02584 143.776 3.97321 142.355 3.97321H126.513V64.0124V64.0256Z" fill="#141517"/>
<path d="M149.262 32.9341C155.578 21.9605 161.894 11 168.21 0.0263672H183.394V0.0526835L172.012 19.7894C182.96 19.7894 193.907 19.8158 204.854 19.8158L197.275 32.921L149.262 32.9341Z" fill="#141517"/>
<path d="M177.065 67.9734C179.591 63.605 182.118 59.2235 184.644 54.8551L151.736 54.8156L160.683 39.5262H145.446C139.986 49.013 134.512 58.4998 129.052 67.9866L177.065 67.9734Z" fill="#141517"/>
<path d="M239.091 0.0395508C225.999 22.6842 212.92 45.3157 199.828 67.9603C194.776 67.9603 189.71 67.9735 184.657 67.9866L216.315 13.1974H183.407C185.934 8.81583 188.473 4.42111 190.999 0.0395508H239.091Z" fill="#FE4F18"/>
<path d="M224.263 50.3029V38.9346H225.17V50.3029H224.263Z" fill="black"/>
<path d="M230.434 50.3029V39.8162H226.355V38.9346H235.407V39.8162H231.328V50.3029H230.42H230.434Z" fill="black"/>
<path d="M234.71 45.7372V44.9082H239.447V45.7372H234.71Z" fill="black"/>
<path d="M241.263 54.0924V41.7767H242.092V48.3424H242.17V54.0924H241.263ZM244.999 50.5398C244.236 50.5398 243.578 50.3424 243.052 49.9345C242.526 49.5398 242.118 49.0003 241.842 48.3161C241.565 47.6319 241.42 46.8688 241.42 46.0135C241.42 45.1582 241.565 44.3819 241.842 43.7109C242.118 43.0398 242.539 42.5004 243.078 42.1188C243.618 41.7372 244.302 41.5398 245.092 41.5398C245.881 41.5398 246.526 41.7372 247.078 42.1319C247.631 42.5267 248.039 43.0661 248.328 43.7372C248.618 44.4214 248.763 45.1714 248.763 46.0135C248.763 46.8556 248.618 47.6319 248.328 48.3161C248.039 49.0003 247.618 49.5398 247.052 49.9345C246.499 50.3293 245.815 50.5266 245.013 50.5266L244.999 50.5398ZM244.947 49.6714C245.578 49.6714 246.092 49.5135 246.513 49.1845C246.934 48.8687 247.249 48.4214 247.46 47.8819C247.67 47.3424 247.776 46.7109 247.776 46.0266C247.776 45.3424 247.67 44.724 247.46 44.1846C247.249 43.6451 246.934 43.2109 246.526 42.8951C246.105 42.5793 245.578 42.4214 244.934 42.4214C244.289 42.4214 243.789 42.5793 243.368 42.8819C242.947 43.1846 242.631 43.6188 242.42 44.1714C242.21 44.724 242.105 45.3424 242.105 46.0398C242.105 46.7372 242.21 47.3556 242.42 47.9082C242.631 48.4608 242.947 48.8951 243.368 49.2108C243.789 49.5266 244.328 49.6845 244.96 49.6845L244.947 49.6714Z" fill="black"/>
<path d="M253.749 50.5398C252.934 50.5398 252.223 50.3556 251.631 49.9872C251.039 49.6187 250.578 49.1056 250.249 48.4345C249.92 47.7635 249.763 46.974 249.763 46.053C249.763 45.1319 249.92 44.3161 250.249 43.6451C250.578 42.974 251.026 42.4477 251.618 42.0793C252.21 41.7109 252.907 41.5398 253.723 41.5398C254.539 41.5398 255.263 41.724 255.842 42.1056C256.434 42.4872 256.881 43.0267 257.184 43.7372C257.486 44.4477 257.644 45.303 257.618 46.303H256.67V45.9872C256.644 44.8161 256.381 43.9346 255.881 43.3161C255.381 42.7109 254.67 42.3951 253.736 42.3951C252.802 42.3951 252.026 42.7109 251.513 43.3425C250.986 43.974 250.723 44.8688 250.723 46.0266C250.723 47.1845 250.986 48.0661 251.513 48.6977C252.039 49.3293 252.776 49.6451 253.723 49.6451C254.381 49.6451 254.96 49.4872 255.447 49.1845C255.934 48.8819 256.328 48.4345 256.618 47.8687L257.434 48.2372C257.092 48.974 256.592 49.5398 255.947 49.9477C255.302 50.3424 254.565 50.5529 253.723 50.5529L253.749 50.5398ZM250.381 46.303V45.4872H257.118V46.303H250.381Z" fill="black"/>
<path d="M259.144 50.3029V41.7767H260.039V49.4345H263.499V41.7767H264.394V49.4345H267.842V41.7767H268.736V50.3029H259.144Z" fill="black"/>
<path d="M274.223 50.5398C273.407 50.5398 272.697 50.3556 272.105 49.9872C271.513 49.6187 271.052 49.1056 270.723 48.4345C270.394 47.7635 270.236 46.974 270.236 46.053C270.236 45.1319 270.394 44.3161 270.723 43.6451C271.052 42.974 271.499 42.4477 272.092 42.0793C272.684 41.7109 273.381 41.5398 274.197 41.5398C275.013 41.5398 275.736 41.724 276.315 42.1056C276.907 42.4872 277.355 43.0267 277.657 43.7372C277.96 44.4477 278.118 45.303 278.092 46.303H277.144V45.9872C277.118 44.8161 276.855 43.9346 276.355 43.3161C275.855 42.7109 275.144 42.3951 274.21 42.3951C273.276 42.3951 272.499 42.7109 271.986 43.3425C271.46 43.974 271.197 44.8688 271.197 46.0266C271.197 47.1845 271.46 48.0661 271.986 48.6977C272.513 49.3293 273.249 49.6451 274.197 49.6451C274.855 49.6451 275.434 49.4872 275.92 49.1845C276.407 48.8819 276.802 48.4345 277.091 47.8687L277.907 48.2372C277.565 48.974 277.065 49.5398 276.42 49.9477C275.776 50.3424 275.039 50.5529 274.197 50.5529L274.223 50.5398ZM270.855 46.303V45.4872H277.592V46.303H270.855Z" fill="black"/>
<path d="M279.618 50.3029V41.7767H280.526V45.5924H285.67V41.7767H286.578V50.3029H285.67V46.4872H280.526V50.3029H279.618Z" fill="black"/>
<path d="M295.118 41.7767V50.3029H294.223V43.303L289.341 50.3029H288.539V41.7767H289.434V48.7503L294.315 41.7767H295.118Z" fill="black"/>
<path d="M296.618 50.3029L299.118 46.6188H300.17L297.657 50.3029H296.618ZM302.526 50.3029V46.974H300.368C300.131 46.974 299.894 46.974 299.67 46.9345C299.447 46.9082 299.223 46.8819 299.026 46.8424C298.447 46.7372 297.947 46.474 297.539 46.0793C297.131 45.6845 296.92 45.1188 296.92 44.3951C296.92 43.6714 297.118 43.1451 297.499 42.724C297.881 42.303 298.328 42.0267 298.841 41.8951C299.091 41.8293 299.341 41.7898 299.591 41.7898C299.841 41.7898 300.065 41.7767 300.249 41.7767H303.434V50.3029H302.526ZM300.368 46.1451H302.526V42.6056H300.368C300.223 42.6056 300.026 42.6056 299.776 42.6188C299.526 42.6319 299.289 42.6714 299.078 42.7372C298.894 42.7898 298.71 42.8819 298.526 43.0135C298.341 43.1451 298.184 43.3293 298.065 43.553C297.947 43.7767 297.881 44.053 297.881 44.3819C297.881 44.8424 297.999 45.1977 298.249 45.474C298.499 45.7503 298.815 45.9214 299.184 46.0266C299.394 46.0793 299.605 46.1056 299.815 46.1188C300.026 46.1188 300.197 46.1319 300.355 46.1319L300.368 46.1451Z" fill="black"/>
<path d="M223.473 67.9871V65.2634C223.96 65.2634 224.315 65.1055 224.539 64.8029C224.763 64.4871 224.934 64.0003 225.065 63.3424C225.157 62.895 225.223 62.4213 225.289 61.9082C225.355 61.395 225.407 60.7897 225.447 60.0924C225.486 59.395 225.539 58.5529 225.578 57.5792H230.973V65.2766H231.776V68.0002H230.894V66.1055H224.355V68.0002H223.46L223.473 67.9871ZM225.249 65.2634H230.078V58.395H226.473C226.447 58.8292 226.42 59.2898 226.394 59.7766C226.368 60.2634 226.328 60.7503 226.289 61.2371C226.249 61.724 226.197 62.1713 226.144 62.6055C226.092 63.0397 226.013 63.395 225.934 63.7108C225.855 64.066 225.763 64.3687 225.67 64.6318C225.578 64.895 225.447 65.1055 225.263 65.2766L225.249 65.2634Z" fill="black"/>
<path d="M232.342 65.2766C232.657 65.3292 232.907 65.316 233.065 65.2239C233.223 65.1318 233.342 64.9739 233.42 64.7634C233.499 64.5529 233.552 64.2897 233.605 63.9871C233.697 63.4608 233.776 62.8818 233.842 62.2634C233.907 61.645 233.973 60.9476 234.026 60.1713C234.078 59.395 234.144 58.5266 234.197 57.5661H239.842V66.0923H238.92V58.4476H235.078C235.039 59.0792 234.986 59.6976 234.947 60.2897C234.907 60.8819 234.842 61.4476 234.789 61.9871C234.736 62.5266 234.67 63.0134 234.618 63.4476C234.565 63.8818 234.486 64.2634 234.42 64.5924C234.342 65.0134 234.236 65.3555 234.105 65.6055C233.973 65.8555 233.763 66.0266 233.499 66.1187C233.223 66.1976 232.842 66.1976 232.342 66.1055V65.2766Z" fill="black"/>
<path d="M241.355 66.0923L243.855 62.4082H244.907L242.394 66.0923H241.355ZM247.263 66.0923V62.7634H245.105C244.868 62.7634 244.631 62.7634 244.407 62.7239C244.184 62.6976 243.96 62.6713 243.763 62.6318C243.184 62.5266 242.684 62.2634 242.276 61.8687C241.868 61.4739 241.657 60.9082 241.657 60.1845C241.657 59.4608 241.855 58.9345 242.236 58.5134C242.618 58.0924 243.065 57.8161 243.578 57.6845C243.828 57.6187 244.078 57.5792 244.328 57.5792C244.578 57.5792 244.802 57.5661 244.986 57.5661H248.17V66.0923H247.263ZM245.105 61.9345H247.263V58.395H245.105C244.96 58.395 244.763 58.395 244.513 58.4082C244.263 58.4213 244.026 58.4608 243.815 58.5266C243.631 58.5792 243.447 58.6713 243.263 58.8029C243.078 58.9345 242.92 59.1187 242.802 59.3424C242.684 59.5661 242.618 59.8424 242.618 60.1713C242.618 60.6318 242.736 60.9871 242.986 61.2634C243.236 61.5397 243.552 61.7108 243.92 61.8161C244.131 61.8687 244.342 61.895 244.552 61.9082C244.763 61.9082 244.934 61.9213 245.092 61.9213L245.105 61.9345Z" fill="black"/>
<path d="M256.46 66.3292C255.67 66.3292 254.986 66.1581 254.42 65.8292C253.855 65.5003 253.407 64.9739 253.105 64.2897C252.789 63.5924 252.631 62.7108 252.618 61.645C252.618 61.1976 252.618 60.7108 252.67 60.1976C252.71 59.6713 252.776 59.1845 252.855 58.724C252.934 58.2634 253.013 57.895 253.105 57.6187C253.236 57.224 253.42 56.8424 253.67 56.5003C253.92 56.1582 254.223 55.8687 254.578 55.645C254.894 55.4345 255.263 55.2634 255.67 55.145C256.092 55.0266 256.526 54.9214 256.973 54.8556C257.42 54.7898 257.868 54.724 258.302 54.6714C258.736 54.6187 259.131 54.5661 259.473 54.4871L259.578 55.3292C259.289 55.3819 258.947 55.4345 258.552 55.4871C258.157 55.5398 257.736 55.5924 257.302 55.6713C256.868 55.7503 256.447 55.8292 256.052 55.9477C255.657 56.0661 255.315 56.2108 255.026 56.395C254.578 56.6582 254.249 57.0792 254.013 57.6319C253.776 58.1845 253.631 58.8292 253.565 59.5661C253.894 59.0397 254.328 58.645 254.894 58.3687C255.46 58.0924 256.065 57.9477 256.736 57.9477C257.499 57.9477 258.17 58.1187 258.736 58.474C259.302 58.8292 259.723 59.3161 260.026 59.9476C260.328 60.5792 260.486 61.3161 260.486 62.145C260.486 62.9739 260.328 63.7371 259.999 64.3555C259.684 64.9871 259.223 65.4739 258.618 65.816C258.013 66.1581 257.302 66.3292 256.473 66.3292H256.46ZM256.539 65.4476C257.513 65.4476 258.249 65.145 258.749 64.5397C259.249 63.9345 259.499 63.1318 259.499 62.1318C259.499 61.1319 259.236 60.3029 258.723 59.7108C258.197 59.1187 257.473 58.8292 256.526 58.8292C255.578 58.8292 254.855 59.1187 254.355 59.7108C253.842 60.3029 253.592 61.1055 253.592 62.1318C253.592 63.1582 253.842 63.9608 254.355 64.5529C254.855 65.145 255.592 65.4345 256.552 65.4345L256.539 65.4476Z" fill="black"/>
<path d="M268.539 57.5661V66.0923H267.644V59.0924L262.763 66.0923H261.96V57.5661H262.855V64.5397L267.736 57.5661H268.539Z" fill="black"/>
<path d="M273.592 66.3292C272.723 66.3292 271.973 66.1318 271.342 65.7503C270.71 65.3687 270.223 64.816 269.855 64.1318L270.592 63.6845C270.907 64.2634 271.302 64.6976 271.802 65.0003C272.289 65.3029 272.868 65.4476 273.513 65.4476C274.157 65.4476 274.723 65.2897 275.144 64.9739C275.552 64.6581 275.763 64.2239 275.763 63.6582C275.763 63.3029 275.684 63.0003 275.539 62.7766C275.381 62.5397 275.144 62.3687 274.815 62.2634C274.486 62.1582 274.052 62.0924 273.526 62.0924H272.394V61.2766H273.526C274.157 61.2766 274.657 61.1582 275.026 60.9082C275.394 60.6582 275.578 60.2897 275.578 59.8161C275.578 59.2766 275.381 58.8819 274.986 58.6187C274.592 58.3556 274.118 58.224 273.552 58.224C272.986 58.224 272.513 58.3292 272.052 58.5529C271.592 58.7766 271.197 59.0661 270.907 59.4082L270.276 58.7898C270.684 58.3029 271.17 57.9345 271.736 57.6977C272.302 57.4477 272.934 57.3292 273.644 57.3292C274.197 57.3292 274.684 57.4213 275.118 57.6187C275.552 57.8161 275.894 58.0924 276.144 58.4608C276.394 58.8292 276.513 59.2634 276.513 59.7634C276.513 60.2634 276.381 60.7108 276.131 61.0529C275.881 61.4082 275.526 61.6845 275.092 61.895L274.999 61.5134C275.394 61.5661 275.723 61.6976 275.986 61.9345C276.249 62.1713 276.42 62.4476 276.539 62.7634C276.657 63.0924 276.71 63.4213 276.71 63.7503C276.71 64.2766 276.578 64.7239 276.302 65.1187C276.026 65.5134 275.67 65.8029 275.197 66.0134C274.723 66.2239 274.197 66.3292 273.605 66.3292H273.592Z" fill="black"/>
<path d="M278.197 66.0923V57.5661H279.105V61.3819H284.249V57.5661H285.157V66.0923H284.249V62.2766H279.105V66.0923H278.197Z" fill="black"/>
<path d="M290.631 66.3292C289.815 66.3292 289.105 66.145 288.513 65.7766C287.92 65.4081 287.46 64.895 287.131 64.2239C286.802 63.5529 286.644 62.7634 286.644 61.8424C286.644 60.9213 286.802 60.1055 287.131 59.4345C287.46 58.7634 287.907 58.2371 288.499 57.8687C289.091 57.5003 289.789 57.3292 290.605 57.3292C291.42 57.3292 292.144 57.5134 292.723 57.895C293.315 58.2766 293.763 58.8161 294.065 59.5266C294.368 60.2371 294.526 61.0924 294.499 62.0924H293.552V61.7766C293.526 60.6055 293.263 59.724 292.763 59.1055C292.263 58.5003 291.552 58.1845 290.618 58.1845C289.684 58.1845 288.907 58.5003 288.394 59.1319C287.868 59.7634 287.605 60.6582 287.605 61.8161C287.605 62.9739 287.868 63.8555 288.394 64.4871C288.92 65.1187 289.657 65.4345 290.605 65.4345C291.263 65.4345 291.842 65.2766 292.328 64.9739C292.815 64.6713 293.21 64.2239 293.499 63.6582L294.315 64.0266C293.973 64.7634 293.473 65.3292 292.828 65.7371C292.184 66.1318 291.447 66.3424 290.605 66.3424L290.631 66.3292ZM287.263 62.0924V61.2766H293.999V62.0924H287.263Z" fill="black"/>
<path d="M299.513 66.3292C298.657 66.3292 297.947 66.145 297.355 65.7634C296.776 65.3818 296.328 64.8555 296.026 64.1713C295.723 63.4871 295.565 62.7108 295.552 61.8292C295.552 60.9345 295.723 60.145 296.026 59.4608C296.328 58.7898 296.776 58.2634 297.368 57.8819C297.947 57.5134 298.67 57.3161 299.513 57.3161C300.355 57.3161 301.065 57.5134 301.697 57.9082C302.328 58.3029 302.763 58.8555 302.999 59.5529L302.118 59.8819C301.907 59.3555 301.565 58.9345 301.105 58.645C300.644 58.3555 300.105 58.2108 299.513 58.2108C298.841 58.2108 298.289 58.3687 297.842 58.6713C297.407 58.974 297.078 59.4082 296.868 59.9476C296.657 60.4871 296.539 61.1187 296.526 61.8292C296.539 62.9213 296.802 63.7897 297.302 64.4608C297.802 65.1187 298.539 65.4476 299.513 65.4476C300.118 65.4476 300.644 65.3029 301.091 65.0266C301.539 64.7503 301.881 64.3424 302.118 63.816L303.013 64.1187C302.684 64.8424 302.223 65.3818 301.618 65.7634C301.013 66.145 300.315 66.3292 299.513 66.3292Z" fill="black"/>
<path d="M306.855 66.3292C306.197 66.3292 305.644 66.2108 305.21 65.9871C304.776 65.7503 304.447 65.4476 304.236 65.066C304.026 64.6845 303.907 64.2766 303.907 63.8292C303.907 63.3424 304.013 62.9345 304.21 62.6187C304.407 62.3029 304.684 62.0266 305.026 61.8292C305.368 61.6318 305.736 61.474 306.144 61.3819C306.618 61.2766 307.118 61.1845 307.657 61.1055C308.197 61.0266 308.723 60.9608 309.21 60.9082C309.697 60.8555 310.105 60.8029 310.42 60.7634L310.091 60.9608C310.118 60.0398 309.934 59.3555 309.578 58.9082C309.21 58.4608 308.565 58.2371 307.644 58.2371C306.999 58.2371 306.46 58.3819 306.052 58.6713C305.644 58.9608 305.341 59.4213 305.17 60.0266L304.236 59.7634C304.434 58.9871 304.828 58.395 305.407 57.974C305.999 57.5529 306.749 57.3555 307.67 57.3555C308.46 57.3555 309.118 57.5134 309.644 57.8161C310.184 58.1187 310.552 58.5529 310.763 59.1055C310.855 59.3292 310.907 59.5924 310.947 59.895C310.973 60.1976 310.999 60.5003 310.999 60.8029V66.1187H310.17V63.8818L310.473 63.9608C310.21 64.7239 309.763 65.316 309.118 65.7371C308.473 66.1581 307.71 66.3555 306.841 66.3555L306.855 66.3292ZM306.907 65.4871C307.486 65.4871 307.999 65.3818 308.434 65.1713C308.868 64.9608 309.223 64.6713 309.499 64.2897C309.776 63.9082 309.947 63.4739 310.013 62.9608C310.065 62.6713 310.091 62.3687 310.105 62.0397C310.118 61.7108 310.105 61.4608 310.105 61.3029L310.499 61.5529C310.157 61.5924 309.749 61.645 309.276 61.6845C308.802 61.7239 308.315 61.7897 307.815 61.8555C307.315 61.9213 306.868 62.0134 306.473 62.1187C306.223 62.1845 305.973 62.2897 305.723 62.4082C305.473 62.5397 305.263 62.7108 305.105 62.9476C304.947 63.1845 304.855 63.4608 304.855 63.8029C304.855 64.066 304.92 64.3161 305.052 64.5792C305.184 64.8424 305.394 65.0529 305.697 65.2239C305.999 65.395 306.407 65.4739 306.907 65.4739V65.4871Z" fill="black"/>
</svg>
