<svg width="223" height="32" viewBox="0 0 223 32" fill="none" xmlns="http://www.w3.org/2000/svg">
<path d="M116.342 2.48375V0.523871H115.522V0.0184937H117.722V0.523871H116.903V2.48375H116.342ZM118.184 2.48375V0.0184937H118.634L119.485 1.34973L120.335 0.0184937H120.785V2.48375H120.249V1.06623L119.639 2.04617H119.331L118.721 1.06623V2.48375H118.184Z" fill="black"/>
<path d="M13.713 31.845C10.6684 31.845 8.13535 31.167 6.10151 29.805C4.06767 28.4429 2.54538 26.5693 1.52846 24.178C0.511541 21.7867 0 19.0318 0 15.9194C0 12.807 0.511541 10.0521 1.52846 7.66079C2.54538 5.26949 4.07384 3.39589 6.10151 2.03384C8.12918 0.677945 10.6684 0 13.713 0C17.2753 0 20.1535 0.930634 22.3291 2.7919C24.5047 4.65317 25.9776 7.13075 26.7419 10.2308L24.8744 10.6561C24.1965 7.95662 22.9269 5.79952 21.0656 4.19094C19.2043 2.58236 16.7514 1.78115 13.713 1.78115C11.0937 1.78115 8.91807 2.38514 7.18622 3.58695C5.45438 4.78876 4.14779 6.45897 3.26646 8.58526C2.38514 10.7115 1.93523 13.1583 1.91057 15.9194C1.87976 18.6805 2.30501 21.1211 3.18634 23.2412C4.06767 25.3613 5.38659 27.0315 7.14308 28.2395C8.90574 29.4475 11.0937 30.0515 13.713 30.0515C16.7576 30.0515 19.2043 29.2441 21.0656 27.6355C22.9269 26.0208 24.1965 23.8699 24.8744 21.1827L26.7419 21.608C25.9776 24.708 24.5047 27.1856 22.3291 29.0469C20.1473 30.9082 17.2753 31.8388 13.713 31.8388V31.845Z" fill="#141517"/>
<path d="M41.3609 31.845C38.3163 31.845 35.7833 31.167 33.7495 29.805C31.7156 28.4429 30.1933 26.5693 29.1764 24.178C28.1595 21.7867 27.6479 19.0318 27.6479 15.9194C27.6479 12.807 28.1595 10.0521 29.1764 7.66079C30.1933 5.26949 31.7218 3.39589 33.7495 2.03384C35.7771 0.677945 38.3163 0 41.3609 0C44.4055 0 46.9386 0.677945 48.9724 2.03384C51.0001 3.39589 52.5286 5.26949 53.5455 7.66079C54.5624 10.0521 55.0739 12.807 55.0739 15.9194C55.0739 19.0318 54.5624 21.7867 53.5455 24.178C52.5286 26.5693 51.0001 28.4429 48.9724 29.805C46.9447 31.167 44.4055 31.845 41.3609 31.845ZM41.3609 30.0576C43.9803 30.0576 46.162 29.4537 47.9062 28.2457C49.6565 27.0377 50.9693 25.3675 51.8444 23.2474C52.7196 21.1273 53.1634 18.6866 53.1634 15.9256C53.1634 13.1645 52.7258 10.7239 51.8444 8.59142C50.9631 6.45897 49.6565 4.79492 47.9062 3.59311C46.162 2.3913 43.9741 1.78731 41.3609 1.78731C38.7478 1.78731 36.566 2.3913 34.8342 3.59311C33.1023 4.79492 31.7957 6.46513 30.9144 8.59142C30.0331 10.7177 29.5832 13.1645 29.5585 15.9256C29.5277 18.6866 29.953 21.1273 30.8343 23.2474C31.7095 25.3675 33.0345 27.0377 34.791 28.2457C36.5537 29.4537 38.7416 30.0576 41.3609 30.0576Z" fill="#141517"/>
<path d="M57.2495 31.845V0.00616455H66.6791C67.0674 0.00616455 67.6837 0.0123283 68.5342 0.0308177C69.3847 0.043144 70.1921 0.110938 70.9687 0.228038C73.3353 0.567011 75.3014 1.46683 76.8545 2.92749C78.4137 4.38816 79.5724 6.24326 80.3305 8.48665C81.0885 10.7362 81.4707 13.2138 81.4707 15.9256C81.4707 18.6373 81.0885 21.1396 80.3305 23.3891C79.5724 25.6387 78.4137 27.4876 76.8545 28.9359C75.2952 30.3904 73.3353 31.2841 70.9687 31.6231C70.2106 31.7279 69.3909 31.7895 68.5219 31.8141C67.6529 31.8388 67.0366 31.845 66.6791 31.845H57.2495ZM59.2587 29.9898H66.6791C67.394 29.9898 68.109 29.9652 68.8362 29.9221C69.5635 29.8789 70.1675 29.8111 70.6543 29.7248C72.7683 29.3735 74.4693 28.5662 75.7574 27.3027C77.0455 26.0393 77.9823 24.4369 78.574 22.4831C79.1595 20.5294 79.4553 18.3477 79.4553 15.9256C79.4553 13.5034 79.1595 11.3217 78.574 9.36798C77.9885 7.41426 77.0455 5.81185 75.7574 4.5484C74.4693 3.29112 72.7683 2.48375 70.6543 2.12629C70.1613 2.04 69.545 1.97221 68.7992 1.92907C68.0535 1.88592 67.3447 1.86127 66.6791 1.86127H59.2587V29.9837V29.9898Z" fill="#141517"/>
<path d="M69.9143 15.4263C72.8726 10.2863 75.831 5.15239 78.7893 0.0123291H85.9015V0.0246557L80.5704 9.26937C85.6981 9.26937 90.8259 9.28169 95.9536 9.28169L92.4036 15.4202L69.9143 15.4263Z" fill="#141517"/>
<path d="M82.9371 31.8388C84.1204 29.7926 85.3037 27.7403 86.487 25.6941L71.073 25.6756L75.2639 18.5141H68.127C65.5693 22.9577 63.0055 27.4013 60.4478 31.845L82.9371 31.8388Z" fill="#141517"/>
<path d="M111.99 0.0184937C105.858 10.6253 99.7316 21.2259 93.5993 31.8326C91.2327 31.8326 88.8599 31.8388 86.4932 31.845L101.322 6.18164H85.9077C87.091 4.12931 88.2805 2.07082 89.4639 0.0184937H111.99Z" fill="#FE4F18"/>
<path d="M127.025 12.5161V0H128.021V12.5161H127.025Z" fill="black"/>
<path d="M133.793 12.5161V0.970583H129.32V0H139.247V0.970583H134.774V12.5161H133.778H133.793Z" fill="black"/>
<path d="M138.482 7.48937V6.57673H143.677V7.48937H138.482Z" fill="black"/>
<path d="M145.668 16.6881V3.12902H146.577V10.3576H146.664V16.6881H145.668ZM149.766 12.7768C148.929 12.7768 148.208 12.5595 147.631 12.1105C147.053 11.6759 146.606 11.0819 146.303 10.3287C146 9.57538 145.841 8.73518 145.841 7.79358C145.841 6.85197 146 5.99729 146.303 5.25849C146.606 4.5197 147.068 3.92577 147.66 3.50567C148.251 3.08557 149.001 2.86827 149.867 2.86827C150.733 2.86827 151.44 3.08556 152.046 3.52014C152.652 3.95473 153.099 4.54867 153.417 5.28746C153.734 6.04074 153.893 6.86646 153.893 7.79358C153.893 8.72069 153.734 9.57538 153.417 10.3287C153.099 11.0819 152.638 11.6759 152.017 12.1105C151.411 12.545 150.661 12.7623 149.781 12.7623L149.766 12.7768ZM149.709 11.8207C150.401 11.8207 150.964 11.6469 151.426 11.2847C151.887 10.9371 152.234 10.4445 152.465 9.85061C152.695 9.25668 152.811 8.56134 152.811 7.80805C152.811 7.05477 152.695 6.37393 152.465 5.78C152.234 5.18606 151.887 4.70801 151.44 4.36035C150.978 4.01268 150.401 3.83884 149.694 3.83884C148.987 3.83884 148.439 4.01267 147.977 4.34586C147.515 4.67904 147.169 5.15709 146.938 5.76551C146.707 6.37393 146.592 7.05478 146.592 7.82254C146.592 8.59031 146.707 9.27116 146.938 9.87958C147.169 10.488 147.515 10.9661 147.977 11.3137C148.439 11.6614 149.03 11.8352 149.723 11.8352L149.709 11.8207Z" fill="black"/>
<path d="M159.362 12.7768C158.467 12.7768 157.688 12.574 157.039 12.1684C156.389 11.7628 155.884 11.1978 155.524 10.459C155.163 9.72023 154.99 8.85107 154.99 7.83703C154.99 6.823 155.163 5.92485 155.524 5.18606C155.884 4.44726 156.375 3.86781 157.024 3.4622C157.674 3.05659 158.438 2.86827 159.333 2.86827C160.228 2.86827 161.021 3.07108 161.656 3.49118C162.306 3.91128 162.796 4.50521 163.128 5.28746C163.46 6.06972 163.633 7.01132 163.604 8.11228H162.565V7.7646C162.536 6.47533 162.248 5.50475 161.699 4.8239C161.151 4.15754 160.372 3.80988 159.347 3.80988C158.323 3.80988 157.472 4.15755 156.909 4.85288C156.332 5.54822 156.043 6.53327 156.043 7.80806C156.043 9.08284 156.332 10.0534 156.909 10.7488C157.486 11.4441 158.294 11.7918 159.333 11.7918C160.055 11.7918 160.689 11.6179 161.223 11.2847C161.757 10.9516 162.19 10.459 162.508 9.83612L163.402 10.2417C163.027 11.053 162.479 11.6759 161.772 12.1249C161.065 12.5595 160.257 12.7913 159.333 12.7913L159.362 12.7768ZM155.668 8.11228V7.21413H163.056V8.11228H155.668Z" fill="black"/>
<path d="M165.278 12.5161V3.12902H166.259V11.56H170.054V3.12902H171.035V11.56H174.816V3.12902H175.797V12.5161H165.278Z" fill="black"/>
<path d="M181.814 12.7768C180.92 12.7768 180.141 12.574 179.491 12.1684C178.842 11.7628 178.337 11.1978 177.976 10.459C177.615 9.72023 177.442 8.85107 177.442 7.83703C177.442 6.823 177.615 5.92485 177.976 5.18606C178.337 4.44726 178.827 3.86781 179.477 3.4622C180.126 3.05659 180.891 2.86827 181.785 2.86827C182.68 2.86827 183.474 3.07108 184.109 3.49118C184.758 3.91128 185.249 4.50521 185.58 5.28746C185.912 6.06972 186.085 7.01132 186.057 8.11228H185.018V7.7646C184.989 6.47533 184.7 5.50475 184.152 4.8239C183.604 4.15754 182.824 3.80988 181.8 3.80988C180.775 3.80988 179.924 4.15755 179.361 4.85288C178.784 5.54822 178.496 6.53327 178.496 7.80806C178.496 9.08284 178.784 10.0534 179.361 10.7488C179.938 11.4441 180.747 11.7918 181.785 11.7918C182.507 11.7918 183.142 11.6179 183.676 11.2847C184.21 10.9516 184.643 10.459 184.96 9.83612L185.855 10.2417C185.479 11.053 184.931 11.6759 184.224 12.1249C183.517 12.5595 182.709 12.7913 181.785 12.7913L181.814 12.7768ZM178.12 8.11228V7.21413H185.508V8.11228H178.12Z" fill="black"/>
<path d="M187.73 12.5161V3.12902H188.726V7.33002H194.368V3.12902H195.364V12.5161H194.368V8.31508H188.726V12.5161H187.73Z" fill="black"/>
<path d="M204.729 3.12902V12.5161H203.747V4.80941L198.394 12.5161H197.514V3.12902H198.495V10.8067L203.848 3.12902H204.729Z" fill="black"/>
<path d="M206.373 12.5161L209.115 8.45994H210.269L207.513 12.5161H206.373ZM212.852 12.5161V8.85106H210.486C210.226 8.85106 209.966 8.85106 209.721 8.80761C209.476 8.77863 209.231 8.74966 209.014 8.7062C208.379 8.59031 207.831 8.30059 207.384 7.866C206.936 7.43142 206.705 6.80851 206.705 6.01177C206.705 5.21503 206.922 4.63559 207.34 4.17203C207.759 3.70847 208.249 3.40425 208.812 3.25939C209.086 3.18696 209.36 3.14351 209.635 3.14351C209.909 3.14351 210.154 3.12902 210.356 3.12902H213.848V12.5161H212.852ZM210.486 7.93844H212.852V4.04165H210.486C210.327 4.04165 210.111 4.04165 209.837 4.05614C209.562 4.07062 209.303 4.11408 209.072 4.18651C208.87 4.24445 208.668 4.34587 208.466 4.49073C208.264 4.63559 208.091 4.83839 207.961 5.08466C207.831 5.33092 207.759 5.63513 207.759 5.99728C207.759 6.5043 207.889 6.89543 208.163 7.19964C208.437 7.50385 208.783 7.69217 209.187 7.80806C209.418 7.866 209.649 7.89498 209.88 7.90947C210.111 7.90947 210.298 7.92395 210.471 7.92395L210.486 7.93844Z" fill="black"/>
<path d="M126.159 31.9855V28.9869C126.693 28.9869 127.083 28.813 127.328 28.4799C127.574 28.1322 127.761 27.5962 127.905 26.8719C128.006 26.3794 128.079 25.8579 128.151 25.2929C128.223 24.7279 128.281 24.0616 128.324 23.2938C128.367 22.526 128.425 21.5989 128.468 20.5269H134.384V29.0014H135.265V32H134.298V29.914H127.126V32H126.145L126.159 31.9855ZM128.107 28.9869H133.403V21.4251H129.449C129.421 21.9031 129.392 22.4101 129.363 22.9461C129.334 23.4821 129.291 24.0181 129.247 24.5541C129.204 25.0901 129.146 25.5826 129.089 26.0607C129.031 26.5387 128.944 26.9298 128.858 27.2775C128.771 27.6686 128.67 28.0018 128.569 28.2915C128.468 28.5813 128.324 28.813 128.122 29.0014L128.107 28.9869Z" fill="black"/>
<path d="M135.885 29.0014C136.231 29.0593 136.505 29.0448 136.679 28.9434C136.852 28.842 136.982 28.6682 137.068 28.4364C137.155 28.2046 137.213 27.9149 137.27 27.5817C137.371 27.0023 137.458 26.3649 137.53 25.684C137.602 25.0032 137.674 24.2354 137.732 23.3807C137.79 22.526 137.862 21.5699 137.92 20.5124H144.11V29.8995H143.1V21.483H138.886C138.843 22.1784 138.785 22.8592 138.742 23.5111C138.699 24.163 138.627 24.7859 138.569 25.3798C138.511 25.9737 138.439 26.5097 138.381 26.9878C138.324 27.4658 138.237 27.8859 138.165 28.2481C138.078 28.7116 137.963 29.0883 137.819 29.3635C137.674 29.6387 137.443 29.8271 137.155 29.9285C136.852 30.0154 136.433 30.0154 135.885 29.914V29.0014Z" fill="black"/>
<path d="M145.769 29.8995L148.511 25.8434H149.665L146.909 29.8995H145.769ZM152.248 29.8995V26.2345H149.882C149.622 26.2345 149.362 26.2345 149.117 26.191C148.872 26.1621 148.626 26.1331 148.41 26.0896C147.775 25.9737 147.227 25.684 146.779 25.2494C146.332 24.8148 146.101 24.1919 146.101 23.3952C146.101 22.5985 146.318 22.019 146.736 21.5555C147.154 21.0919 147.645 20.7877 148.208 20.6428C148.482 20.5704 148.756 20.5269 149.03 20.5269C149.304 20.5269 149.55 20.5124 149.752 20.5124H153.244V29.8995H152.248ZM149.882 25.3219H152.248V21.4251H149.882C149.723 21.4251 149.507 21.4251 149.232 21.4396C148.958 21.454 148.698 21.4975 148.468 21.5699C148.266 21.6279 148.064 21.7293 147.862 21.8742C147.66 22.019 147.486 22.2218 147.356 22.4681C147.227 22.7143 147.154 23.0186 147.154 23.3807C147.154 23.8877 147.284 24.2789 147.559 24.5831C147.833 24.8873 148.179 25.0756 148.583 25.1915C148.814 25.2494 149.045 25.2784 149.276 25.2929C149.507 25.2929 149.694 25.3074 149.867 25.3074L149.882 25.3219Z" fill="black"/>
<path d="M162.334 30.1602C161.469 30.1602 160.718 29.9719 160.098 29.6098C159.477 29.2476 158.987 28.6682 158.655 27.9149C158.309 27.1471 158.135 26.1765 158.121 25.0032C158.121 24.5106 158.121 23.9746 158.179 23.4097C158.222 22.8302 158.294 22.2942 158.381 21.7872C158.467 21.2802 158.554 20.8746 158.655 20.5704C158.799 20.1358 159.001 19.7157 159.275 19.3391C159.55 18.9624 159.881 18.6437 160.271 18.3975C160.617 18.1657 161.021 17.9774 161.469 17.847C161.93 17.7166 162.407 17.6007 162.897 17.5283C163.388 17.4559 163.878 17.3834 164.355 17.3255C164.831 17.2675 165.264 17.2096 165.639 17.1227L165.754 18.0498C165.437 18.1077 165.062 18.1657 164.629 18.2236C164.196 18.2816 163.734 18.3395 163.258 18.4264C162.782 18.5134 162.32 18.6003 161.887 18.7306C161.454 18.861 161.079 19.0204 160.762 19.2232C160.271 19.5129 159.91 19.9765 159.65 20.5849C159.391 21.1933 159.232 21.9031 159.16 22.7143C159.521 22.1349 159.997 21.7003 160.617 21.3961C161.238 21.0919 161.902 20.9325 162.637 20.9325C163.474 20.9325 164.21 21.1209 164.831 21.512C165.451 21.9031 165.913 22.4391 166.245 23.1344C166.577 23.8298 166.75 24.641 166.75 25.5536C166.75 26.4663 166.577 27.3065 166.216 27.9873C165.87 28.6827 165.365 29.2186 164.701 29.5953C164.037 29.9719 163.258 30.1602 162.349 30.1602H162.334ZM162.421 29.1897C163.489 29.1897 164.297 28.8565 164.845 28.1901C165.393 27.5238 165.668 26.6401 165.668 25.5392C165.668 24.4382 165.379 23.5256 164.816 22.8737C164.239 22.2218 163.445 21.9031 162.407 21.9031C161.368 21.9031 160.574 22.2218 160.026 22.8737C159.463 23.5256 159.189 24.4092 159.189 25.5392C159.189 26.6691 159.463 27.5527 160.026 28.2046C160.574 28.8565 161.382 29.1752 162.435 29.1752L162.421 29.1897Z" fill="black"/>
<path d="M175.581 20.5124V29.8995H174.6V22.1928L169.246 29.8995H168.366V20.5124H169.347V28.1901L174.701 20.5124H175.581Z" fill="black"/>
<path d="M181.122 30.1602C180.169 30.1602 179.347 29.943 178.654 29.5229C177.962 29.1028 177.428 28.4943 177.024 27.7411L177.832 27.2485C178.178 27.8859 178.611 28.364 179.159 28.6971C179.693 29.0303 180.328 29.1897 181.035 29.1897C181.742 29.1897 182.363 29.0158 182.824 28.6682C183.272 28.3205 183.503 27.8425 183.503 27.2196C183.503 26.8284 183.416 26.4952 183.257 26.249C183.084 25.9882 182.824 25.7999 182.464 25.684C182.103 25.5681 181.627 25.4957 181.05 25.4957H179.809V24.5976H181.05C181.742 24.5976 182.291 24.4672 182.695 24.1919C183.099 23.9167 183.301 23.5111 183.301 22.9896C183.301 22.3957 183.084 21.9611 182.651 21.6713C182.218 21.3816 181.699 21.2368 181.078 21.2368C180.458 21.2368 179.938 21.3526 179.433 21.5989C178.928 21.8452 178.496 22.1639 178.178 22.5405L177.485 21.8597C177.933 21.3237 178.467 20.9181 179.087 20.6573C179.708 20.3821 180.4 20.2517 181.179 20.2517C181.785 20.2517 182.319 20.3531 182.796 20.5704C183.272 20.7877 183.647 21.0919 183.921 21.4975C184.195 21.9031 184.325 22.3812 184.325 22.9316C184.325 23.4821 184.181 23.9746 183.907 24.3513C183.632 24.7424 183.243 25.0466 182.767 25.2784L182.666 24.8583C183.099 24.9163 183.459 25.0611 183.748 25.3219C184.036 25.5826 184.224 25.8868 184.354 26.2345C184.484 26.5966 184.542 26.9588 184.542 27.321C184.542 27.9004 184.397 28.3929 184.094 28.8275C183.791 29.2621 183.402 29.5808 182.882 29.8126C182.363 30.0444 181.785 30.1602 181.136 30.1602H181.122Z" fill="black"/>
<path d="M186.172 29.8995V20.5124H187.168V24.7134H192.81V20.5124H193.805V29.8995H192.81V25.6985H187.168V29.8995H186.172Z" fill="black"/>
<path d="M199.808 30.1602C198.913 30.1602 198.134 29.9574 197.485 29.5518C196.836 29.1462 196.33 28.5813 195.97 27.8425C195.609 27.1037 195.436 26.2345 195.436 25.2205C195.436 24.2064 195.609 23.3083 195.97 22.5695C196.33 21.8307 196.821 21.2512 197.47 20.8456C198.12 20.44 198.885 20.2517 199.779 20.2517C200.674 20.2517 201.467 20.4545 202.102 20.8746C202.752 21.2947 203.242 21.8886 203.574 22.6709C203.906 23.4531 204.079 24.3948 204.05 25.4957H203.011V25.148C202.983 23.8588 202.694 22.8882 202.146 22.2073C201.597 21.541 200.818 21.1933 199.794 21.1933C198.769 21.1933 197.918 21.541 197.355 22.2363C196.778 22.9316 196.489 23.9167 196.489 25.1915C196.489 26.4663 196.778 27.4369 197.355 28.1322C197.932 28.8275 198.74 29.1752 199.779 29.1752C200.501 29.1752 201.136 29.0014 201.669 28.6682C202.203 28.335 202.636 27.8425 202.954 27.2196L203.848 27.6252C203.473 28.4364 202.925 29.0593 202.218 29.5084C201.511 29.943 200.703 30.1747 199.779 30.1747L199.808 30.1602ZM196.114 25.4957V24.5976H203.502V25.4957H196.114Z" fill="black"/>
<path d="M209.548 30.1602C208.61 30.1602 207.831 29.9574 207.182 29.5373C206.547 29.1172 206.056 28.5378 205.724 27.7845C205.392 27.0312 205.219 26.1765 205.205 25.206C205.205 24.2209 205.392 23.3517 205.724 22.5985C206.056 21.8597 206.547 21.2802 207.196 20.8601C207.831 20.4545 208.624 20.2372 209.548 20.2372C210.471 20.2372 211.251 20.4545 211.943 20.8891C212.636 21.3237 213.112 21.9321 213.372 22.6999L212.405 23.062C212.174 22.4826 211.799 22.019 211.294 21.7003C210.789 21.3816 210.197 21.2223 209.548 21.2223C208.812 21.2223 208.206 21.3961 207.715 21.7293C207.239 22.0625 206.878 22.5405 206.648 23.1344C206.417 23.7284 206.287 24.4237 206.272 25.206C206.287 26.4083 206.576 27.3644 207.124 28.1032C207.672 28.8275 208.48 29.1897 209.548 29.1897C210.212 29.1897 210.789 29.0303 211.28 28.7261C211.77 28.4219 212.145 27.9728 212.405 27.3934L213.386 27.7266C213.026 28.5233 212.52 29.1172 211.857 29.5373C211.193 29.9574 210.428 30.1602 209.548 30.1602Z" fill="black"/>
<path d="M217.6 30.1602C216.878 30.1602 216.272 30.0299 215.796 29.7836C215.32 29.5229 214.959 29.1897 214.728 28.7696C214.497 28.3495 214.367 27.9004 214.367 27.4079C214.367 26.8719 214.483 26.4228 214.699 26.0751C214.916 25.7275 215.219 25.4233 215.594 25.206C215.969 24.9887 216.373 24.8148 216.821 24.7134C217.34 24.5976 217.888 24.4962 218.48 24.4092C219.072 24.3223 219.649 24.2499 220.183 24.1919C220.716 24.134 221.164 24.0761 221.51 24.0326L221.149 24.2499C221.178 23.2359 220.976 22.4826 220.587 21.99C220.183 21.4975 219.476 21.2512 218.465 21.2512C217.758 21.2512 217.167 21.4106 216.719 21.7293C216.272 22.048 215.94 22.555 215.753 23.2214L214.728 22.9316C214.945 22.077 215.378 21.4251 216.012 20.9615C216.662 20.498 217.484 20.2807 218.494 20.2807C219.36 20.2807 220.082 20.4545 220.659 20.7877C221.25 21.1209 221.654 21.5989 221.885 22.2073C221.986 22.4536 222.044 22.7433 222.087 23.0765C222.116 23.4097 222.145 23.7429 222.145 24.076V29.9285H221.236V27.4658L221.568 27.5527C221.279 28.3929 220.789 29.0448 220.082 29.5084C219.375 29.9719 218.538 30.1892 217.585 30.1892L217.6 30.1602ZM217.657 29.2331C218.292 29.2331 218.855 29.1172 219.331 28.8855C219.807 28.6537 220.197 28.335 220.5 27.9149C220.803 27.4948 220.991 27.0167 221.063 26.4518C221.121 26.1331 221.149 25.7999 221.164 25.4378C221.178 25.0756 221.164 24.8004 221.164 24.6265L221.597 24.9018C221.222 24.9452 220.774 25.0032 220.255 25.0466C219.735 25.0901 219.201 25.1625 218.653 25.235C218.105 25.3074 217.614 25.4088 217.181 25.5247C216.907 25.5971 216.633 25.713 216.359 25.8434C216.085 25.9882 215.854 26.1765 215.681 26.4373C215.507 26.698 215.406 27.0023 215.406 27.3789C215.406 27.6686 215.479 27.9439 215.623 28.2336C215.767 28.5233 215.998 28.7551 216.33 28.9434C216.662 29.1317 217.109 29.2187 217.657 29.2187V29.2331Z" fill="black"/>
</svg>
