<svg width="152" height="60" viewBox="0 0 152 60" fill="none" xmlns="http://www.w3.org/2000/svg">
<g opacity="0.5">
<path d="M18.1658 59.92C15.3178 59.92 12.6695 59.4 10.2208 58.36C7.77203 57.2933 5.65602 55.8 3.87271 53.88C2.11602 51.9333 0.825113 49.6267 0 46.96L6.82714 45C7.70549 47.6667 9.1694 49.6933 11.2189 51.08C13.2683 52.4667 15.5707 53.1467 18.1259 53.12C20.4681 53.0667 22.491 52.5333 24.1944 51.52C25.9245 50.48 27.2553 49.0667 28.1869 47.28C29.1451 45.4933 29.6242 43.4267 29.6242 41.08C29.6242 37.5067 28.5596 34.6133 26.4302 32.4C24.3009 30.16 21.5062 29.04 18.046 29.04C17.0878 29.04 16.0764 29.1733 15.0117 29.44C13.9737 29.7067 13.0022 30.08 12.0972 30.56L8.66368 24.92L29.9835 5.6L30.9018 8H2.27571V1.2H36.1719V8.04L18.0061 25.48L17.9262 22.96C21.7324 22.6933 25.0595 23.32 27.9074 24.84C30.7554 26.36 32.9646 28.5333 34.535 31.36C36.132 34.1867 36.9305 37.4267 36.9305 41.08C36.9305 44.76 36.1053 48.0133 34.4551 50.84C32.8049 53.6667 30.5691 55.8933 27.7477 57.52C24.9264 59.12 21.7324 59.92 18.1658 59.92Z" fill="#141517" fill-opacity="0.2"/>
<path d="M62.7219 60C59.7674 60 57.0126 59.3867 54.4574 58.16C51.9289 56.9333 49.7596 55.2533 47.9497 53.12C46.1664 50.96 44.8888 48.48 44.1169 45.68L50.9441 43.84C51.4232 45.7333 52.2749 47.3733 53.4993 48.76C54.7236 50.12 56.1476 51.1867 57.7712 51.96C59.4214 52.7067 61.1382 53.08 62.9215 53.08C65.2638 53.08 67.3665 52.52 69.2296 51.4C71.1194 50.2533 72.6099 48.7467 73.7012 46.88C74.7925 44.9867 75.3381 42.92 75.3381 40.68C75.3381 38.36 74.7659 36.2667 73.6214 34.4C72.5035 32.5067 70.9996 31.0133 69.1099 29.92C67.2201 28.8267 65.1573 28.28 62.9215 28.28C60.3929 28.28 58.2237 28.8133 56.4138 29.88C54.6305 30.92 53.2198 32.2 52.1817 33.72L45.8736 31.32L47.6303 1.2H78.4922V7.96H51.0638L54.2179 5L52.7407 29.12L51.1836 27.08C52.7806 25.3733 54.6837 24.0533 56.8929 23.12C59.1287 22.1867 61.4044 21.72 63.72 21.72C67.2866 21.72 70.4806 22.56 73.302 24.24C76.1233 25.8933 78.3591 28.16 80.0093 31.04C81.6596 33.8933 82.4847 37.1067 82.4847 40.68C82.4847 44.2267 81.5797 47.4667 79.7698 50.4C77.9599 53.3067 75.5511 55.64 72.5434 57.4C69.5623 59.1333 66.2885 60 62.7219 60Z" fill="#141517" fill-opacity="0.2"/>
<path d="M96.8239 58.8L92.0329 54L144.814 1.2L149.605 6L96.8239 58.8ZM137.627 60C134.992 60 132.583 59.36 130.401 58.08C128.245 56.7733 126.515 55.04 125.21 52.88C123.906 50.6933 123.254 48.2667 123.254 45.6C123.254 42.9867 123.92 40.5867 125.25 38.4C126.581 36.2133 128.338 34.4667 130.52 33.16C132.703 31.8533 135.072 31.2 137.627 31.2C140.262 31.2 142.671 31.8533 144.853 33.16C147.036 34.44 148.766 36.1733 150.044 38.36C151.348 40.52 152 42.9333 152 45.6C152 48.2667 151.348 50.6933 150.044 52.88C148.766 55.04 147.036 56.7733 144.853 58.08C142.671 59.36 140.262 60 137.627 60ZM137.627 53.72C139.091 53.72 140.435 53.3467 141.659 52.6C142.91 51.8533 143.895 50.8667 144.614 49.64C145.359 48.4133 145.732 47.0667 145.732 45.6C145.732 44.1333 145.359 42.7867 144.614 41.56C143.895 40.3067 142.91 39.32 141.659 38.6C140.435 37.8533 139.091 37.48 137.627 37.48C136.163 37.48 134.819 37.8533 133.595 38.6C132.37 39.32 131.385 40.3067 130.64 41.56C129.895 42.7867 129.522 44.1333 129.522 45.6C129.522 47.0667 129.895 48.4133 130.64 49.64C131.385 50.8667 132.37 51.8533 133.595 52.6C134.819 53.3467 136.163 53.72 137.627 53.72ZM104.01 28.8C101.375 28.8 98.9665 28.16 96.784 26.88C94.6014 25.5733 92.858 23.84 91.5538 21.68C90.2762 19.4933 89.6374 17.0667 89.6374 14.4C89.6374 11.7867 90.3029 9.38667 91.6337 7.2C92.9645 5.01333 94.7212 3.26666 96.9038 1.96C99.0863 0.653332 101.455 0 104.01 0C106.645 0 109.041 0.653332 111.197 1.96C113.379 3.24 115.123 4.97333 116.427 7.16C117.731 9.32 118.383 11.7333 118.383 14.4C118.383 17.0667 117.731 19.4933 116.427 21.68C115.123 23.84 113.379 25.5733 111.197 26.88C109.041 28.16 106.645 28.8 104.01 28.8ZM104.01 22.52C105.474 22.52 106.818 22.1467 108.043 21.4C109.294 20.6533 110.279 19.6667 110.997 18.44C111.742 17.2133 112.115 15.8667 112.115 14.4C112.115 12.9333 111.742 11.5867 110.997 10.36C110.279 9.10667 109.294 8.12 108.043 7.4C106.818 6.65333 105.474 6.28 104.01 6.28C102.546 6.28 101.202 6.65333 99.978 7.4C98.7536 8.12 97.7688 9.10667 97.0235 10.36C96.2783 11.5867 95.9056 12.9333 95.9056 14.4C95.9056 15.8667 96.2783 17.2133 97.0235 18.44C97.7688 19.6667 98.7536 20.6533 99.978 21.4C101.202 22.1467 102.546 22.52 104.01 22.52Z" fill="#141517" fill-opacity="0.2"/>
</g>
</svg>
