<svg width="138" height="60" viewBox="0 0 138 60" fill="none" xmlns="http://www.w3.org/2000/svg">
<g opacity="0.5">
<path d="M10.8254 58.8V9.08L0 15.64V7.68L10.8254 1.2H18.0556V58.8H10.8254Z" fill="#141517" fill-opacity="0.2"/>
<path d="M48.6743 60C45.7183 60 42.962 59.3867 40.4055 58.16C37.8755 56.9333 35.7051 55.2533 33.8943 53.12C32.11 50.96 30.8317 48.48 30.0594 45.68L36.8902 43.84C37.3696 45.7333 38.2217 47.3733 39.4468 48.76C40.6718 50.12 42.0965 51.1867 43.721 51.96C45.3721 52.7067 47.0898 53.08 48.874 53.08C51.2175 53.08 53.3214 52.52 55.1855 51.4C57.0763 50.2533 58.5676 48.7467 59.6595 46.88C60.7513 44.9867 61.2973 42.92 61.2973 40.68C61.2973 38.36 60.7247 36.2667 59.5796 34.4C58.4611 32.5067 56.9565 31.0133 55.0657 29.92C53.1749 28.8267 51.111 28.28 48.874 28.28C46.3441 28.28 44.1737 28.8133 42.3628 29.88C40.5786 30.92 39.1671 32.2 38.1285 33.72L31.8171 31.32L33.5747 1.2H64.453V7.96H37.01L40.1658 5L38.6878 29.12L37.1299 27.08C38.7277 25.3733 40.6318 24.0533 42.8422 23.12C45.0792 22.1867 47.3561 21.72 49.673 21.72C53.2415 21.72 56.4372 22.56 59.26 24.24C62.0829 25.8933 64.3199 28.16 65.971 31.04C67.6221 33.8933 68.4476 37.1067 68.4476 40.68C68.4476 44.2267 67.5422 47.4667 65.7313 50.4C63.9204 53.3067 61.5103 55.64 58.501 57.4C55.5184 59.1333 52.2428 60 48.6743 60Z" fill="#141517" fill-opacity="0.2"/>
<path d="M82.7945 58.8L78.001 54L130.81 1.2L135.603 6L82.7945 58.8ZM123.619 60C120.983 60 118.573 59.36 116.389 58.08C114.232 56.7733 112.501 55.04 111.196 52.88C109.891 50.6933 109.239 48.2667 109.239 45.6C109.239 42.9867 109.905 40.5867 111.236 38.4C112.568 36.2133 114.325 34.4667 116.509 33.16C118.693 31.8533 121.063 31.2 123.619 31.2C126.256 31.2 128.666 31.8533 130.85 33.16C133.033 34.44 134.764 36.1733 136.043 38.36C137.348 40.52 138 42.9333 138 45.6C138 48.2667 137.348 50.6933 136.043 52.88C134.764 55.04 133.033 56.7733 130.85 58.08C128.666 59.36 126.256 60 123.619 60ZM123.619 53.72C125.084 53.72 126.429 53.3467 127.654 52.6C128.906 51.8533 129.891 50.8667 130.61 49.64C131.356 48.4133 131.728 47.0667 131.728 45.6C131.728 44.1333 131.356 42.7867 130.61 41.56C129.891 40.3067 128.906 39.32 127.654 38.6C126.429 37.8533 125.084 37.48 123.619 37.48C122.155 37.48 120.81 37.8533 119.585 38.6C118.36 39.32 117.375 40.3067 116.629 41.56C115.883 42.7867 115.51 44.1333 115.51 45.6C115.51 47.0667 115.883 48.4133 116.629 49.64C117.375 50.8667 118.36 51.8533 119.585 52.6C120.81 53.3467 122.155 53.72 123.619 53.72ZM89.9848 28.8C87.3484 28.8 84.9383 28.16 82.7546 26.88C80.5708 25.5733 78.8265 23.84 77.5216 21.68C76.2434 19.4933 75.6042 17.0667 75.6042 14.4C75.6042 11.7867 76.27 9.38667 77.6015 7.2C78.9331 5.01333 80.6907 3.26666 82.8744 1.96C85.0581 0.653332 87.4283 0 89.9848 0C92.6212 0 95.018 0.653332 97.1751 1.96C99.3588 3.24 101.103 4.97333 102.408 7.16C103.713 9.32 104.365 11.7333 104.365 14.4C104.365 17.0667 103.713 19.4933 102.408 21.68C101.103 23.84 99.3588 25.5733 97.1751 26.88C95.018 28.16 92.6212 28.8 89.9848 28.8ZM89.9848 22.52C91.4495 22.52 92.7943 22.1467 94.0194 21.4C95.271 20.6533 96.2563 19.6667 96.9754 18.44C97.721 17.2133 98.0939 15.8667 98.0939 14.4C98.0939 12.9333 97.721 11.5867 96.9754 10.36C96.2563 9.10667 95.271 8.12 94.0194 7.4C92.7943 6.65333 91.4495 6.28 89.9848 6.28C88.5201 6.28 87.1753 6.65333 85.9502 7.4C84.7252 8.12 83.7399 9.10667 82.9942 10.36C82.2486 11.5867 81.8757 12.9333 81.8757 14.4C81.8757 15.8667 82.2486 17.2133 82.9942 18.44C83.7399 19.6667 84.7252 20.6533 85.9502 21.4C87.1753 22.1467 88.5201 22.52 89.9848 22.52Z" fill="#141517" fill-opacity="0.2"/>
</g>
</svg>
