<svg width="142" height="60" viewBox="0 0 142 60" fill="none" xmlns="http://www.w3.org/2000/svg">
<g opacity="0.5">
<path d="M10.8508 58.8V9.08L0 15.64V7.68L10.8508 1.2H18.0981V58.8H10.8508Z" fill="#141517" fill-opacity="0.2"/>
<path d="M51.1911 60C47.4541 60 44.1174 59.16 41.1811 57.48C38.2716 55.7733 35.9626 53.4667 34.2542 50.56C32.5725 47.6267 31.7317 44.2933 31.7317 40.56V19.44C31.7317 15.7067 32.5725 12.3733 34.2542 9.44C35.9626 6.50666 38.2716 4.2 41.1811 2.52C44.1174 0.839999 47.4541 0 51.1911 0C54.9282 0 58.2649 0.839999 61.2011 2.52C64.1374 4.2 66.4464 6.50666 68.1281 9.44C69.8097 12.3733 70.6506 15.7067 70.6506 19.44V40.56C70.6506 44.2933 69.8097 47.6267 68.1281 50.56C66.4464 53.4667 64.1374 55.7733 61.2011 57.48C58.2649 59.16 54.9282 60 51.1911 60ZM51.1911 53.16C53.4601 53.16 55.5155 52.6133 57.3573 51.52C59.1991 50.4267 60.6673 48.96 61.7617 47.12C62.8561 45.2533 63.4034 43.2 63.4034 40.96V19C63.4034 16.7333 62.8561 14.68 61.7617 12.84C60.6673 11 59.1991 9.53333 57.3573 8.44C55.5155 7.34667 53.4601 6.8 51.1911 6.8C48.9489 6.8 46.8935 7.34667 45.025 8.44C43.1831 9.53333 41.715 11 40.6206 12.84C39.5262 14.68 38.9789 16.7333 38.9789 19V40.96C38.9789 43.2 39.5262 45.2533 40.6206 47.12C41.715 48.96 43.1831 50.4267 45.025 51.52C46.8935 52.6133 48.9489 53.16 51.1911 53.16Z" fill="#141517" fill-opacity="0.2"/>
<path d="M86.6647 58.8L81.8599 54L134.793 1.2L139.598 6L86.6647 58.8ZM127.586 60C124.943 60 122.527 59.36 120.338 58.08C118.176 56.7733 116.441 55.04 115.133 52.88C113.825 50.6933 113.171 48.2667 113.171 45.6C113.171 42.9867 113.839 40.5867 115.173 38.4C116.508 36.2133 118.27 34.4667 120.458 33.16C122.647 31.8533 125.023 31.2 127.586 31.2C130.228 31.2 132.644 31.8533 134.833 33.16C137.022 34.44 138.757 36.1733 140.038 38.36C141.346 40.52 142 42.9333 142 45.6C142 48.2667 141.346 50.6933 140.038 52.88C138.757 55.04 137.022 56.7733 134.833 58.08C132.644 59.36 130.228 60 127.586 60ZM127.586 53.72C129.054 53.72 130.402 53.3467 131.63 52.6C132.884 51.8533 133.872 50.8667 134.593 49.64C135.34 48.4133 135.714 47.0667 135.714 45.6C135.714 44.1333 135.34 42.7867 134.593 41.56C133.872 40.3067 132.884 39.32 131.63 38.6C130.402 37.8533 129.054 37.48 127.586 37.48C126.117 37.48 124.769 37.8533 123.542 38.6C122.314 39.32 121.326 40.3067 120.579 41.56C119.831 42.7867 119.457 44.1333 119.457 45.6C119.457 47.0667 119.831 48.4133 120.579 49.64C121.326 50.8667 122.314 51.8533 123.542 52.6C124.769 53.3467 126.117 53.72 127.586 53.72ZM93.8719 28.8C91.2293 28.8 88.8135 28.16 86.6247 26.88C84.4358 25.5733 82.6874 23.84 81.3794 21.68C80.0982 19.4933 79.4575 17.0667 79.4575 14.4C79.4575 11.7867 80.1248 9.38667 81.4595 7.2C82.7942 5.01333 84.5559 3.26666 86.7448 1.96C88.9336 0.653332 91.3093 0 93.8719 0C96.5146 0 98.917 0.653332 101.079 1.96C103.268 3.24 105.016 4.97333 106.324 7.16C107.632 9.32 108.286 11.7333 108.286 14.4C108.286 17.0667 107.632 19.4933 106.324 21.68C105.016 23.84 103.268 25.5733 101.079 26.88C98.917 28.16 96.5146 28.8 93.8719 28.8ZM93.8719 22.52C95.34 22.52 96.6881 22.1467 97.916 21.4C99.1705 20.6533 100.158 19.6667 100.879 18.44C101.626 17.2133 102 15.8667 102 14.4C102 12.9333 101.626 11.5867 100.879 10.36C100.158 9.10667 99.1705 8.12 97.916 7.4C96.6881 6.65333 95.34 6.28 93.8719 6.28C92.4038 6.28 91.0558 6.65333 89.8279 7.4C88.6 8.12 87.6123 9.10667 86.8649 10.36C86.1175 11.5867 85.7438 12.9333 85.7438 14.4C85.7438 15.8667 86.1175 17.2133 86.8649 18.44C87.6123 19.6667 88.6 20.6533 89.8279 21.4C91.0558 22.1467 92.4038 22.52 93.8719 22.52Z" fill="#141517" fill-opacity="0.2"/>
</g>
</svg>
