<svg width="320" height="58" viewBox="0 0 320 58" fill="none" xmlns="http://www.w3.org/2000/svg">
<g opacity="0.5">
<path d="M315.247 35.132L296.511 16.6263L291.21 22.0899L304.289 35.132L291.21 48.3504L296.511 53.814L315.247 35.132Z" fill="#141517" fill-opacity="0.6"/>
<path d="M17.4562 53.2842C13.7448 53.2842 10.5636 52.5792 8.61951 50.993C5.4383 48.7018 4.20117 45.7057 4.20117 41.1233V6.93182H12.1542V17.5064H23.642V25.2612H12.1542V39.7134C12.1542 42.5333 12.6844 43.9432 14.0983 44.8244C14.9819 45.3533 16.5725 45.7057 19.0468 45.7057C20.6374 45.7057 23.642 45.5294 23.642 45.5294V52.7555C23.642 52.7555 20.8141 53.2842 17.4562 53.2842ZM234.838 46.0583C231.304 51.1693 226.179 53.813 219.285 53.813C213.631 53.813 208.859 52.0505 205.324 48.5256C201.789 45.0007 200.022 40.5947 200.022 35.3074C200.022 30.0198 201.789 25.6138 205.324 22.089C208.859 18.564 213.278 16.8015 218.756 16.8015C223.881 16.8015 228.123 18.564 231.48 22.2651C234.838 25.7901 236.429 30.3724 236.429 35.4835C236.429 37.4222 236.076 38.8322 236.076 38.8322H208.506C209.035 41.2996 210.272 43.0619 212.217 44.4721C214.16 45.882 216.634 46.5869 219.463 46.5869C223.351 46.5869 226.355 45.177 228.3 42.357L234.838 46.0583ZM208.506 31.9586H228.3C227.769 29.3149 226.708 27.3763 224.941 25.9664C223.175 24.5563 221.054 23.8513 218.579 23.8513C215.929 23.8513 213.631 24.5563 211.862 26.1425C210.272 27.7287 209.035 29.6675 208.506 31.9586ZM142.407 46.0583C138.872 51.1693 133.747 53.813 126.854 53.813C121.199 53.813 116.427 52.0505 112.892 48.5256C109.358 45.0007 107.59 40.5947 107.59 35.3074C107.59 30.0198 109.358 25.6138 112.892 22.089C116.427 18.564 120.845 16.8015 126.324 16.8015C131.449 16.8015 135.691 18.564 139.049 22.2651C142.407 25.7901 143.997 30.3724 143.997 35.4835C143.997 37.4222 143.644 38.8322 143.644 38.8322H116.074C116.604 41.2996 117.841 43.0619 119.785 44.4721C121.729 45.882 124.203 46.5869 127.031 46.5869C130.919 46.5869 133.924 45.177 135.868 42.357L142.407 46.0583ZM116.074 31.9586H135.868C135.338 29.3149 134.277 27.3763 132.51 25.9664C130.743 24.5563 128.622 23.8513 126.147 23.8513C123.496 23.8513 121.199 24.5563 119.431 26.1425C117.664 27.7287 116.604 29.6675 116.074 31.9586ZM41.3153 9.5755C41.3153 6.93182 39.1943 4.81688 36.5434 4.81688C33.8925 4.81688 31.7716 6.93182 31.7716 9.5755C31.7716 12.2192 33.8925 14.3342 36.5434 14.3342C39.1943 14.3342 41.3153 12.2192 41.3153 9.5755ZM188.004 52.9318L197.195 17.6827H189.065L183.409 42.5333H182.879L176.34 17.6827H168.033L161.317 42.5333H160.787L155.132 17.6827H147.002L156.192 52.9318H165.559L171.921 28.0812H172.452L178.814 52.9318H188.004ZM101.581 52.9318V31.0774C101.581 26.6713 100.344 23.1463 97.8699 20.6789C95.3956 18.0353 92.2146 16.8015 88.1497 16.8015C83.908 16.8015 79.8432 19.0926 77.7223 22.7939H77.1921C75.4249 19.0926 71.7135 16.8015 67.4717 16.8015C63.4068 16.8015 59.8723 18.7403 57.9282 21.9127H57.5747V17.6827H49.4449V52.9318H57.5747V33.1923C57.5747 30.3724 58.2817 28.0813 59.8723 26.495C61.2861 25.0851 63.0535 24.2039 65.1743 24.2039C67.1184 24.2039 68.7089 24.9088 69.7693 26.1425C70.8298 27.3763 71.36 29.3149 71.36 31.6061V52.9318H79.4898V33.1923C79.4898 30.3724 80.1965 28.0813 81.6105 26.495C82.8477 25.0851 84.7918 24.3801 86.9125 24.3801C88.8565 24.3801 90.4471 25.0851 91.6842 26.3188C92.9214 27.5526 93.4517 29.4912 93.4517 31.7824V53.1081H101.581V52.9318ZM40.6083 52.9318V17.6827H32.4785V52.9318H40.6083ZM275.487 48.3494C278.846 44.8244 280.612 40.4184 280.612 35.1311C280.612 30.0199 278.846 25.4375 275.487 21.9127C272.129 18.3877 267.888 16.6254 263.293 16.6254C258.697 16.6254 254.103 18.7403 251.274 21.9127H250.745V6.93182H242.614V52.7555H250.745V48.3494H251.274C254.103 51.698 258.875 53.813 263.469 53.813C268.241 53.813 272.129 51.8743 275.487 48.3494ZM269.478 27.3763C271.599 29.4912 272.484 31.9586 272.484 35.1311C272.484 38.3035 271.423 40.7708 269.478 42.8858C267.357 45.0007 264.883 45.882 261.702 45.882C258.52 45.882 256.046 44.8244 253.927 42.8858C251.805 40.7708 250.921 38.3035 250.921 35.1311C250.921 31.9586 251.982 29.4912 253.927 27.3763C256.046 25.2612 258.52 24.3801 261.702 24.3801C264.883 24.3801 267.357 25.4375 269.478 27.3763Z" fill="#141517" fill-opacity="0.6"/>
</g>
</svg>
